<?xml version="1.0" standalone="yes"?><svg width="1125" height="2000"><g transform="translate(-650 1000)"><path d="M 1212,750 L 650,-750 L 1270,-749 L 1267,-745 L 1273,-747 L 1271,-750 L 1276,-749 L 1278,-743 L 1286,-745 L 1293,-739 L 1289,-726 L 1292,-726 L 1291,-729 L 1298,-729 L 1296,-725 L 1298,-726 L 1298,-723 L 1301,-726 L 1300,-721 L 1302,-725 L 1307,-721 L 1311,-724 L 1308,-718 L 1298,-718 L 1300,-713 L 1297,-709 L 1305,-712 L 1300,-716 L 1304,-715 L 1306,-718 L 1306,-714 L 1313,-718 L 1319,-713 L 1318,-717 L 1322,-714 L 1325,-717 L 1323,-713 L 1326,-713 L 1326,-710 L 1323,-709 L 1321,-712 L 1319,-702 L 1323,-708 L 1334,-700 L 1334,-697 L 1340,-703 L 1343,-699 L 1337,-699 L 1333,-695 L 1335,-693 L 1344,-697 L 1340,-691 L 1346,-688 L 1341,-688 L 1345,-685 L 1342,-682 L 1346,-681 L 1345,-675 L 1348,-679 L 1349,-675 L 1349,-681 L 1353,-677 L 1360,-677 L 1360,-680 L 1366,-675 L 1373,-674 L 1378,-666 L 1375,-667 L 1374,-662 L 1371,-663 L 1373,-661 L 1377,-661 L 1379,-676 L 1379,-672 L 1388,-672 L 1382,-671 L 1383,-665 L 1381,-668 L 1387,-667 L 1384,-667 L 1387,-666 L 1384,-662 L 1395,-664 L 1395,-669 L 1399,-669 L 1402,-664 L 1399,-662 L 1401,-665 L 1397,-666 L 1395,-660 L 1401,-655 L 1397,-653 L 1403,-654 L 1402,-657 L 1405,-656 L 1406,-659 L 1408,-656 L 1413,-658 L 1416,-655 L 1416,-661 L 1419,-659 L 1420,-654 L 1409,-650 L 1413,-648 L 1412,-645 L 1421,-645 L 1424,-650 L 1425,-638 L 1435,-635 L 1441,-637 L 1437,-630 L 1446,-630 L 1451,-621 L 1457,-619 L 1448,-616 L 1453,-610 L 1448,-606 L 1455,-608 L 1458,-602 L 1462,-601 L 1459,-606 L 1465,-603 L 1465,-606 L 1470,-599 L 1470,-604 L 1479,-603 L 1477,-593 L 1492,-590 L 1491,-588 L 1493,-593 L 1492,-591 L 1490,-595 L 1492,-593 L 1499,-596 L 1496,-593 L 1500,-592 L 1502,-587 L 1507,-589 L 1504,-584 L 1510,-584 L 1506,-582 L 1512,-584 L 1508,-588 L 1514,-581 L 1515,-585 L 1520,-586 L 1518,-589 L 1518,-586 L 1514,-586 L 1517,-590 L 1520,-585 L 1528,-585 L 1528,-590 L 1529,-584 L 1525,-583 L 1525,-580 L 1522,-582 L 1521,-578 L 1519,-581 L 1516,-579 L 1524,-576 L 1523,-567 L 1519,-568 L 1520,-564 L 1524,-567 L 1537,-567 L 1533,-566 L 1531,-558 L 1535,-552 L 1537,-557 L 1532,-558 L 1539,-561 L 1535,-562 L 1539,-568 L 1536,-571 L 1539,-572 L 1546,-566 L 1544,-569 L 1547,-567 L 1557,-570 L 1555,-575 L 1563,-575 L 1561,-569 L 1567,-569 L 1566,-567 L 1548,-566 L 1550,-561 L 1552,-564 L 1555,-563 L 1549,-558 L 1540,-563 L 1542,-559 L 1539,-553 L 1548,-551 L 1549,-555 L 1545,-552 L 1544,-556 L 1554,-554 L 1554,-559 L 1557,-558 L 1559,-561 L 1564,-556 L 1564,-559 L 1576,-559 L 1577,-563 L 1578,-558 L 1581,-558 L 1583,-564 L 1586,-558 L 1584,-554 L 1579,-557 L 1578,-551 L 1583,-550 L 1581,-546 L 1587,-545 L 1586,-551 L 1590,-546 L 1592,-551 L 1597,-551 L 1594,-542 L 1596,-538 L 1599,-543 L 1603,-541 L 1599,-541 L 1603,-532 L 1608,-538 L 1613,-539 L 1616,-535 L 1622,-543 L 1621,-538 L 1628,-539 L 1632,-532 L 1639,-536 L 1638,-532 L 1642,-527 L 1633,-528 L 1635,-526 L 1632,-523 L 1641,-519 L 1639,-522 L 1643,-522 L 1646,-528 L 1640,-533 L 1648,-533 L 1650,-527 L 1651,-530 L 1653,-527 L 1646,-520 L 1648,-512 L 1651,-509 L 1656,-510 L 1657,-507 L 1657,-515 L 1661,-516 L 1659,-519 L 1666,-515 L 1666,-512 L 1668,-515 L 1672,-514 L 1669,-512 L 1671,-508 L 1676,-509 L 1676,-503 L 1671,-503 L 1679,-496 L 1677,-493 L 1674,-494 L 1676,-497 L 1672,-495 L 1674,-498 L 1670,-500 L 1668,-493 L 1681,-488 L 1679,-494 L 1685,-493 L 1686,-481 L 1681,-481 L 1681,-478 L 1683,-480 L 1685,-476 L 1690,-479 L 1686,-476 L 1689,-474 L 1696,-477 L 1695,-472 L 1700,-471 L 1698,-467 L 1702,-458 L 1696,-453 L 1702,-455 L 1710,-448 L 1715,-451 L 1713,-450 L 1718,-448 L 1716,-446 L 1725,-450 L 1728,-448 L 1724,-448 L 1726,-443 L 1721,-442 L 1716,-431 L 1719,-427 L 1720,-430 L 1725,-428 L 1722,-433 L 1728,-430 L 1725,-425 L 1730,-423 L 1732,-417 L 1728,-415 L 1736,-415 L 1739,-418 L 1739,-414 L 1742,-415 L 1748,-425 L 1745,-420 L 1747,-415 L 1742,-411 L 1744,-412 L 1744,-408 L 1749,-410 L 1751,-406 L 1739,-408 L 1738,-397 L 1743,-396 L 1739,-386 L 1747,-398 L 1743,-386 L 1749,-389 L 1748,-393 L 1759,-381 L 1753,-380 L 1748,-387 L 1746,-381 L 1752,-377 L 1752,-369 L 1758,-371 L 1756,-367 L 1759,-367 L 1759,-363 L 1750,-364 L 1754,-357 L 1763,-364 L 1762,-372 L 1774,-370 L 1774,-353 L 1768,-355 L 1761,-353 L 1761,-350 L 1766,-345 L 1771,-347 L 1771,-352 L 1775,-351 L 1772,-345 L 1775,-267 L 1775,750 L 1212,750 " fill="none" stroke="#000000" stroke-width="0.777"/>
<path d="M 1766,-318 L 1766,-318 " fill="none" stroke="#000000" stroke-width="0.777"/>
<path d="M 1749,-333 L 1751,-337 L 1749,-333 " fill="none" stroke="#000000" stroke-width="0.777"/>
<path d="M 1747,-338 L 1747,-338 " fill="none" stroke="#000000" stroke-width="0.777"/>
<path d="M 1769,-344 L 1769,-344 " fill="none" stroke="#000000" stroke-width="0.777"/>
<path d="M 1741,-346 L 1741,-346 " fill="none" stroke="#000000" stroke-width="0.777"/>
<path d="M 1758,-347 L 1758,-347 " fill="none" stroke="#000000" stroke-width="0.777"/>
<path d="M 1758,-349 L 1756,-350 L 1758,-349 " fill="none" stroke="#000000" stroke-width="0.777"/>
<path d="M 1745,-352 L 1745,-352 " fill="none" stroke="#000000" stroke-width="0.777"/>
<path d="M 1764,-354 L 1767,-361 L 1768,-358 L 1759,-355 L 1764,-354 " fill="none" stroke="#000000" stroke-width="0.777"/>
<path d="M 1758,-356 L 1758,-356 " fill="none" stroke="#000000" stroke-width="0.777"/>
<path d="M 1746,-359 L 1751,-359 L 1746,-365 L 1749,-369 L 1744,-368 L 1746,-359 " fill="none" stroke="#000000" stroke-width="0.777"/>
<path d="M 1764,-359 L 1764,-359 " fill="none" stroke="#000000" stroke-width="0.777"/>
<path d="M 1748,-364 L 1748,-364 " fill="none" stroke="#000000" stroke-width="0.777"/>
<path d="M 1750,-365 L 1750,-365 " fill="none" stroke="#000000" stroke-width="0.777"/>
<path d="M 1764,-367 L 1764,-367 " fill="none" stroke="#000000" stroke-width="0.777"/>
<path d="M 1746,-372 L 1745,-376 L 1746,-372 " fill="none" stroke="#000000" stroke-width="0.777"/>
<path d="M 1737,-380 L 1737,-380 " fill="none" stroke="#000000" stroke-width="0.777"/>
<path d="M 1730,-388 L 1733,-392 L 1730,-388 " fill="none" stroke="#000000" stroke-width="0.777"/>
<path d="M 1734,-393 L 1734,-393 " fill="none" stroke="#000000" stroke-width="0.777"/>
<path d="M 1705,-403 L 1705,-403 " fill="none" stroke="#000000" stroke-width="0.777"/>
<path d="M 1737,-409 L 1737,-409 " fill="none" stroke="#000000" stroke-width="0.777"/>
<path d="M 1733,-411 L 1733,-411 " fill="none" stroke="#000000" stroke-width="0.777"/>
<path d="M 1723,-415 L 1723,-415 " fill="none" stroke="#000000" stroke-width="0.777"/>
<path d="M 1726,-416 L 1726,-416 " fill="none" stroke="#000000" stroke-width="0.777"/>
<path d="M 1723,-422 L 1723,-422 " fill="none" stroke="#000000" stroke-width="0.777"/>
<path d="M 1712,-429 L 1708,-431 L 1712,-429 " fill="none" stroke="#000000" stroke-width="0.777"/>
<path d="M 1710,-436 L 1712,-440 L 1718,-442 L 1709,-445 L 1707,-442 L 1710,-441 L 1708,-435 L 1710,-436 " fill="none" stroke="#000000" stroke-width="0.777"/>
<path d="M 1701,-439 L 1701,-439 " fill="none" stroke="#000000" stroke-width="0.777"/>
<path d="M 1720,-443 L 1720,-443 " fill="none" stroke="#000000" stroke-width="0.777"/>
<path d="M 1702,-444 L 1702,-444 " fill="none" stroke="#000000" stroke-width="0.777"/>
<path d="M 1686,-454 L 1686,-454 " fill="none" stroke="#000000" stroke-width="0.777"/>
<path d="M 1695,-456 L 1695,-456 " fill="none" stroke="#000000" stroke-width="0.777"/>
<path d="M 1686,-459 L 1686,-459 " fill="none" stroke="#000000" stroke-width="0.777"/>
<path d="M 1670,-462 L 1670,-462 " fill="none" stroke="#000000" stroke-width="0.777"/>
<path d="M 1681,-467 L 1681,-470 L 1681,-467 " fill="none" stroke="#000000" stroke-width="0.777"/>
<path d="M 1679,-467 L 1679,-467 " fill="none" stroke="#000000" stroke-width="0.777"/>
<path d="M 1692,-469 L 1688,-475 L 1681,-472 L 1689,-472 L 1689,-469 L 1692,-469 " fill="none" stroke="#000000" stroke-width="0.777"/>
<path d="M 1658,-475 L 1658,-475 " fill="none" stroke="#000000" stroke-width="0.777"/>
<path d="M 1668,-483 L 1666,-485 L 1668,-483 " fill="none" stroke="#000000" stroke-width="0.777"/>
<path d="M 1659,-485 L 1656,-487 L 1659,-485 " fill="none" stroke="#000000" stroke-width="0.777"/>
<path d="M 1673,-486 L 1673,-486 " fill="none" stroke="#000000" stroke-width="0.777"/>
<path d="M 1661,-486 L 1661,-486 " fill="none" stroke="#000000" stroke-width="0.777"/>
<path d="M 1631,-493 L 1631,-493 " fill="none" stroke="#000000" stroke-width="0.777"/>
<path d="M 1666,-496 L 1662,-498 L 1666,-496 " fill="none" stroke="#000000" stroke-width="0.777"/>
<path d="M 1647,-506 L 1647,-506 " fill="none" stroke="#000000" stroke-width="0.777"/>
<path d="M 1662,-506 L 1662,-506 " fill="none" stroke="#000000" stroke-width="0.777"/>
<path d="M 1662,-512 L 1662,-512 " fill="none" stroke="#000000" stroke-width="0.777"/>
<path d="M 1634,-517 L 1634,-517 " fill="none" stroke="#000000" stroke-width="0.777"/>
<path d="M 1618,-524 L 1618,-524 " fill="none" stroke="#000000" stroke-width="0.777"/>
<path d="M 1621,-528 L 1619,-529 L 1621,-528 " fill="none" stroke="#000000" stroke-width="0.777"/>
<path d="M 1630,-527 L 1630,-527 " fill="none" stroke="#000000" stroke-width="0.777"/>
<path d="M 1590,-529 L 1587,-530 L 1590,-529 " fill="none" stroke="#000000" stroke-width="0.777"/>
<path d="M 1618,-530 L 1615,-532 L 1613,-536 L 1613,-532 L 1618,-530 " fill="none" stroke="#000000" stroke-width="0.777"/>
<path d="M 1645,-529 L 1645,-529 " fill="none" stroke="#000000" stroke-width="0.777"/>
<path d="M 1577,-530 L 1577,-530 " fill="none" stroke="#000000" stroke-width="0.777"/>
<path d="M 1629,-531 L 1629,-531 " fill="none" stroke="#000000" stroke-width="0.777"/>
<path d="M 1595,-532 L 1595,-532 " fill="none" stroke="#000000" stroke-width="0.777"/>
<path d="M 1598,-532 L 1598,-532 " fill="none" stroke="#000000" stroke-width="0.777"/>
<path d="M 1562,-536 L 1562,-536 " fill="none" stroke="#000000" stroke-width="0.777"/>
<path d="M 1580,-536 L 1575,-541 L 1580,-536 " fill="none" stroke="#000000" stroke-width="0.777"/>
<path d="M 1583,-541 L 1580,-544 L 1580,-540 L 1583,-541 " fill="none" stroke="#000000" stroke-width="0.777"/>
<path d="M 1550,-543 L 1550,-543 " fill="none" stroke="#000000" stroke-width="0.777"/>
<path d="M 1559,-543 L 1555,-546 L 1559,-543 " fill="none" stroke="#000000" stroke-width="0.777"/>
<path d="M 1574,-546 L 1574,-550 L 1574,-546 " fill="none" stroke="#000000" stroke-width="0.777"/>
<path d="M 1549,-549 L 1549,-549 " fill="none" stroke="#000000" stroke-width="0.777"/>
<path d="M 1570,-551 L 1570,-551 " fill="none" stroke="#000000" stroke-width="0.777"/>
<path d="M 1575,-551 L 1574,-554 L 1575,-551 " fill="none" stroke="#000000" stroke-width="0.777"/>
<path d="M 1556,-553 L 1556,-553 " fill="none" stroke="#000000" stroke-width="0.777"/>
<path d="M 1578,-553 L 1578,-553 " fill="none" stroke="#000000" stroke-width="0.777"/>
<path d="M 1487,-556 L 1487,-556 " fill="none" stroke="#000000" stroke-width="0.777"/>
<path d="M 1514,-563 L 1514,-563 " fill="none" stroke="#000000" stroke-width="0.777"/>
<path d="M 1544,-564 L 1544,-564 " fill="none" stroke="#000000" stroke-width="0.777"/>
<path d="M 1484,-567 L 1484,-567 " fill="none" stroke="#000000" stroke-width="0.777"/>
<path d="M 1517,-569 L 1517,-569 " fill="none" stroke="#000000" stroke-width="0.777"/>
<path d="M 1520,-569 L 1520,-569 " fill="none" stroke="#000000" stroke-width="0.777"/>
<path d="M 1505,-573 L 1501,-575 L 1505,-573 " fill="none" stroke="#000000" stroke-width="0.777"/>
<path d="M 1499,-573 L 1499,-573 " fill="none" stroke="#000000" stroke-width="0.777"/>
<path d="M 1494,-574 L 1494,-574 " fill="none" stroke="#000000" stroke-width="0.777"/>
<path d="M 1503,-576 L 1503,-576 " fill="none" stroke="#000000" stroke-width="0.777"/>
<path d="M 1473,-577 L 1473,-577 " fill="none" stroke="#000000" stroke-width="0.777"/>
<path d="M 1493,-577 L 1493,-577 " fill="none" stroke="#000000" stroke-width="0.777"/>
<path d="M 1475,-582 L 1475,-582 " fill="none" stroke="#000000" stroke-width="0.777"/>
<path d="M 1502,-582 L 1502,-582 " fill="none" stroke="#000000" stroke-width="0.777"/>
<path d="M 1474,-587 L 1474,-587 " fill="none" stroke="#000000" stroke-width="0.777"/>
<path d="M 1498,-588 L 1498,-588 " fill="none" stroke="#000000" stroke-width="0.777"/>
<path d="M 1457,-594 L 1453,-596 L 1457,-594 " fill="none" stroke="#000000" stroke-width="0.777"/>
<path d="M 1460,-595 L 1460,-595 " fill="none" stroke="#000000" stroke-width="0.777"/>
<path d="M 1464,-595 L 1462,-596 L 1464,-595 " fill="none" stroke="#000000" stroke-width="0.777"/>
<path d="M 1474,-598 L 1474,-598 " fill="none" stroke="#000000" stroke-width="0.777"/>
<path d="M 1434,-601 L 1434,-601 " fill="none" stroke="#000000" stroke-width="0.777"/>
<path d="M 1454,-604 L 1452,-603 L 1454,-604 " fill="none" stroke="#000000" stroke-width="0.777"/>
<path d="M 1435,-614 L 1435,-614 " fill="none" stroke="#000000" stroke-width="0.777"/>
<path d="M 1452,-618 L 1452,-618 " fill="none" stroke="#000000" stroke-width="0.777"/>
<path d="M 1432,-620 L 1438,-619 L 1434,-624 L 1429,-624 L 1431,-626 L 1424,-622 L 1432,-620 " fill="none" stroke="#000000" stroke-width="0.777"/>
<path d="M 1424,-625 L 1424,-625 " fill="none" stroke="#000000" stroke-width="0.777"/>
<path d="M 1432,-627 L 1428,-633 L 1432,-627 " fill="none" stroke="#000000" stroke-width="0.777"/>
<path d="M 1439,-627 L 1439,-627 " fill="none" stroke="#000000" stroke-width="0.777"/>
<path d="M 1424,-632 L 1424,-632 " fill="none" stroke="#000000" stroke-width="0.777"/>
<path d="M 1404,-639 L 1404,-639 " fill="none" stroke="#000000" stroke-width="0.777"/>
<path d="M 1396,-647 L 1396,-647 " fill="none" stroke="#000000" stroke-width="0.777"/>
<path d="M 1383,-651 L 1383,-651 " fill="none" stroke="#000000" stroke-width="0.777"/>
<path d="M 1411,-653 L 1411,-653 " fill="none" stroke="#000000" stroke-width="0.777"/>
<path d="M 1392,-659 L 1392,-659 " fill="none" stroke="#000000" stroke-width="0.777"/>
<path d="M 1379,-663 L 1379,-663 " fill="none" stroke="#000000" stroke-width="0.777"/>
<path d="M 1365,-664 L 1365,-664 " fill="none" stroke="#000000" stroke-width="0.777"/>
<path d="M 1373,-664 L 1373,-664 " fill="none" stroke="#000000" stroke-width="0.777"/>
<path d="M 1358,-669 L 1358,-669 " fill="none" stroke="#000000" stroke-width="0.777"/>
<path d="M 1365,-670 L 1365,-670 " fill="none" stroke="#000000" stroke-width="0.777"/>
<path d="M 1367,-670 L 1367,-670 " fill="none" stroke="#000000" stroke-width="0.777"/>
<path d="M 1351,-674 L 1351,-674 " fill="none" stroke="#000000" stroke-width="0.777"/>
<path d="M 1324,-680 L 1324,-680 " fill="none" stroke="#000000" stroke-width="0.777"/>
<path d="M 1329,-683 L 1329,-683 " fill="none" stroke="#000000" stroke-width="0.777"/>
<path d="M 1321,-687 L 1321,-687 " fill="none" stroke="#000000" stroke-width="0.777"/>
<path d="M 1338,-687 L 1338,-687 " fill="none" stroke="#000000" stroke-width="0.777"/>
<path d="M 1330,-689 L 1330,-689 " fill="none" stroke="#000000" stroke-width="0.777"/>
<path d="M 1331,-691 L 1331,-691 " fill="none" stroke="#000000" stroke-width="0.777"/>
<path d="M 1332,-697 L 1332,-697 " fill="none" stroke="#000000" stroke-width="0.777"/>
<path d="M 1328,-698 L 1328,-698 " fill="none" stroke="#000000" stroke-width="0.777"/>
<path d="M 1318,-700 L 1318,-700 " fill="none" stroke="#000000" stroke-width="0.777"/>
<path d="M 1324,-699 L 1322,-702 L 1324,-699 " fill="none" stroke="#000000" stroke-width="0.777"/>
<path d="M 1291,-710 L 1291,-710 " fill="none" stroke="#000000" stroke-width="0.777"/>
<path d="M 1311,-712 L 1310,-715 L 1311,-712 " fill="none" stroke="#000000" stroke-width="0.777"/>
<path d="M 1277,-714 L 1277,-714 " fill="none" stroke="#000000" stroke-width="0.777"/>
<path d="M 1296,-718 L 1296,-718 " fill="none" stroke="#000000" stroke-width="0.777"/>
<path d="M 1286,-720 L 1286,-720 " fill="none" stroke="#000000" stroke-width="0.777"/>
<path d="M 1294,-720 L 1288,-725 L 1294,-720 " fill="none" stroke="#000000" stroke-width="0.777"/>
<path d="M 1283,-726 L 1282,-727 L 1282,-731 L 1286,-730 L 1287,-735 L 1271,-733 L 1278,-729 L 1275,-729 L 1276,-727 L 1283,-726 " fill="none" stroke="#000000" stroke-width="0.777"/>
<path d="M 1270,-729 L 1270,-729 " fill="none" stroke="#000000" stroke-width="0.777"/>
<path d="M 1290,-736 L 1290,-736 " fill="none" stroke="#000000" stroke-width="0.777"/>
<path d="M 1286,-737 L 1286,-737 " fill="none" stroke="#000000" stroke-width="0.777"/>
<path d="M 1276,-741 L 1276,-741 " fill="none" stroke="#000000" stroke-width="0.777"/>
<path d="M 1282,-742 L 1282,-742 " fill="none" stroke="#000000" stroke-width="0.777"/>
<path d="M 1694,-470 L 1694,-470 " fill="none" stroke="#000000" stroke-width="0.777"/>
<path d="M 1281,-730 L 1281,-730 " fill="none" stroke="#000000" stroke-width="0.777"/>
<path d="M 1760,-368 L 1760,-368 " fill="none" stroke="#000000" stroke-width="0.777"/>
<path d="M 1754,-372 L 1754,-372 " fill="none" stroke="#000000" stroke-width="0.777"/>
<path d="M 1774,-371 L 1775,-374 L 1774,-371 " fill="none" stroke="#000000" stroke-width="0.777"/>
<path d="M 1763,-374 L 1768,-377 L 1764,-377 L 1763,-374 " fill="none" stroke="#000000" stroke-width="0.777"/>
<path d="M 1769,-374 L 1771,-375 L 1769,-374 " fill="none" stroke="#000000" stroke-width="0.777"/>
<path d="M 1760,-377 L 1760,-377 " fill="none" stroke="#000000" stroke-width="0.777"/>
<path d="M 1767,-379 L 1767,-379 " fill="none" stroke="#000000" stroke-width="0.777"/>
<path d="M 1773,-380 L 1773,-380 " fill="none" stroke="#000000" stroke-width="0.777"/>
<path d="M 1768,-384 L 1768,-388 L 1768,-384 " fill="none" stroke="#000000" stroke-width="0.777"/>
<path d="M 1760,-385 L 1760,-385 " fill="none" stroke="#000000" stroke-width="0.777"/>
<path d="M 1775,-387 L 1775,-387 " fill="none" stroke="#000000" stroke-width="0.777"/>
<path d="M 1768,-391 L 1768,-391 " fill="none" stroke="#000000" stroke-width="0.777"/>
<path d="M 1756,-394 L 1757,-396 L 1756,-394 " fill="none" stroke="#000000" stroke-width="0.777"/>
<path d="M 1763,-394 L 1763,-394 " fill="none" stroke="#000000" stroke-width="0.777"/>
<path d="M 1745,-397 L 1745,-397 " fill="none" stroke="#000000" stroke-width="0.777"/>
<path d="M 1748,-398 L 1749,-405 L 1752,-401 L 1748,-398 " fill="none" stroke="#000000" stroke-width="0.777"/>
<path d="M 1745,-400 L 1745,-400 " fill="none" stroke="#000000" stroke-width="0.777"/>
<path d="M 1742,-405 L 1742,-405 " fill="none" stroke="#000000" stroke-width="0.777"/>
<path d="M 1754,-406 L 1754,-406 " fill="none" stroke="#000000" stroke-width="0.777"/>
<path d="M 1749,-412 L 1749,-412 " fill="none" stroke="#000000" stroke-width="0.777"/>
<path d="M 1736,-418 L 1737,-422 L 1736,-418 " fill="none" stroke="#000000" stroke-width="0.777"/>
<path d="M 1734,-421 L 1734,-421 " fill="none" stroke="#000000" stroke-width="0.777"/>
<path d="M 1740,-421 L 1740,-421 " fill="none" stroke="#000000" stroke-width="0.777"/>
<path d="M 1738,-424 L 1739,-427 L 1738,-424 " fill="none" stroke="#000000" stroke-width="0.777"/>
<path d="M 1739,-429 L 1739,-429 " fill="none" stroke="#000000" stroke-width="0.777"/>
<path d="M 1721,-432 L 1722,-436 L 1721,-432 " fill="none" stroke="#000000" stroke-width="0.777"/>
<path d="M 1723,-437 L 1723,-437 " fill="none" stroke="#000000" stroke-width="0.777"/>
<path d="M 1730,-447 L 1730,-447 " fill="none" stroke="#000000" stroke-width="0.777"/>
<path d="M 1720,-450 L 1720,-450 " fill="none" stroke="#000000" stroke-width="0.777"/>
<path d="M 1708,-452 L 1711,-453 L 1708,-452 " fill="none" stroke="#000000" stroke-width="0.777"/>
<path d="M 1732,-451 L 1732,-451 " fill="none" stroke="#000000" stroke-width="0.777"/>
<path d="M 1716,-452 L 1716,-452 " fill="none" stroke="#000000" stroke-width="0.777"/>
<path d="M 1734,-453 L 1734,-453 " fill="none" stroke="#000000" stroke-width="0.777"/>
<path d="M 1698,-454 L 1698,-454 " fill="none" stroke="#000000" stroke-width="0.777"/>
<path d="M 1712,-455 L 1712,-455 " fill="none" stroke="#000000" stroke-width="0.777"/>
<path d="M 1703,-456 L 1703,-456 " fill="none" stroke="#000000" stroke-width="0.777"/>
<path d="M 1711,-458 L 1711,-458 " fill="none" stroke="#000000" stroke-width="0.777"/>
<path d="M 1704,-460 L 1704,-460 " fill="none" stroke="#000000" stroke-width="0.777"/>
<path d="M 1713,-464 L 1715,-467 L 1713,-464 " fill="none" stroke="#000000" stroke-width="0.777"/>
<path d="M 1707,-466 L 1707,-466 " fill="none" stroke="#000000" stroke-width="0.777"/>
<path d="M 1710,-468 L 1710,-468 " fill="none" stroke="#000000" stroke-width="0.777"/>
<path d="M 1721,-470 L 1721,-470 " fill="none" stroke="#000000" stroke-width="0.777"/>
<path d="M 1723,-472 L 1723,-472 " fill="none" stroke="#000000" stroke-width="0.777"/>
<path d="M 1719,-473 L 1719,-473 " fill="none" stroke="#000000" stroke-width="0.777"/>
<path d="M 1720,-476 L 1720,-476 " fill="none" stroke="#000000" stroke-width="0.777"/>
<path d="M 1701,-476 L 1702,-479 L 1701,-476 " fill="none" stroke="#000000" stroke-width="0.777"/>
<path d="M 1718,-479 L 1718,-479 " fill="none" stroke="#000000" stroke-width="0.777"/>
<path d="M 1692,-485 L 1692,-485 " fill="none" stroke="#000000" stroke-width="0.777"/>
<path d="M 1709,-484 L 1709,-484 " fill="none" stroke="#000000" stroke-width="0.777"/>
<path d="M 1687,-486 L 1687,-486 " fill="none" stroke="#000000" stroke-width="0.777"/>
<path d="M 1692,-487 L 1692,-493 L 1692,-487 " fill="none" stroke="#000000" stroke-width="0.777"/>
<path d="M 1720,-487 L 1720,-487 " fill="none" stroke="#000000" stroke-width="0.777"/>
<path d="M 1696,-489 L 1696,-491 L 1699,-494 L 1699,-488 L 1696,-489 " fill="none" stroke="#000000" stroke-width="0.777"/>
<path d="M 1682,-494 L 1682,-494 " fill="none" stroke="#000000" stroke-width="0.777"/>
<path d="M 1685,-494 L 1685,-498 L 1685,-494 " fill="none" stroke="#000000" stroke-width="0.777"/>
<path d="M 1694,-496 L 1694,-496 " fill="none" stroke="#000000" stroke-width="0.777"/>
<path d="M 1678,-500 L 1678,-500 " fill="none" stroke="#000000" stroke-width="0.777"/>
<path d="M 1683,-501 L 1683,-501 " fill="none" stroke="#000000" stroke-width="0.777"/>
<path d="M 1681,-502 L 1681,-502 " fill="none" stroke="#000000" stroke-width="0.777"/>
<path d="M 1658,-510 L 1658,-510 " fill="none" stroke="#000000" stroke-width="0.777"/>
<path d="M 1674,-510 L 1674,-510 " fill="none" stroke="#000000" stroke-width="0.777"/>
<path d="M 1653,-512 L 1653,-512 " fill="none" stroke="#000000" stroke-width="0.777"/>
<path d="M 1678,-512 L 1678,-512 " fill="none" stroke="#000000" stroke-width="0.777"/>
<path d="M 1674,-513 L 1674,-513 " fill="none" stroke="#000000" stroke-width="0.777"/>
<path d="M 1675,-515 L 1669,-518 L 1664,-521 L 1673,-524 L 1675,-515 " fill="none" stroke="#000000" stroke-width="0.777"/>
<path d="M 1656,-518 L 1658,-522 L 1656,-518 " fill="none" stroke="#000000" stroke-width="0.777"/>
<path d="M 1658,-523 L 1658,-523 " fill="none" stroke="#000000" stroke-width="0.777"/>
<path d="M 1665,-524 L 1665,-524 " fill="none" stroke="#000000" stroke-width="0.777"/>
<path d="M 1661,-525 L 1661,-525 " fill="none" stroke="#000000" stroke-width="0.777"/>
<path d="M 1656,-529 L 1656,-529 " fill="none" stroke="#000000" stroke-width="0.777"/>
<path d="M 1601,-536 L 1601,-536 " fill="none" stroke="#000000" stroke-width="0.777"/>
<path d="M 1650,-536 L 1650,-536 " fill="none" stroke="#000000" stroke-width="0.777"/>
<path d="M 1639,-538 L 1639,-538 " fill="none" stroke="#000000" stroke-width="0.777"/>
<path d="M 1605,-539 L 1605,-539 " fill="none" stroke="#000000" stroke-width="0.777"/>
<path d="M 1612,-539 L 1612,-539 " fill="none" stroke="#000000" stroke-width="0.777"/>
<path d="M 1650,-539 L 1650,-539 " fill="none" stroke="#000000" stroke-width="0.777"/>
<path d="M 1630,-541 L 1630,-541 " fill="none" stroke="#000000" stroke-width="0.777"/>
<path d="M 1603,-542 L 1603,-542 " fill="none" stroke="#000000" stroke-width="0.777"/>
<path d="M 1619,-542 L 1619,-542 " fill="none" stroke="#000000" stroke-width="0.777"/>
<path d="M 1625,-542 L 1625,-542 " fill="none" stroke="#000000" stroke-width="0.777"/>
<path d="M 1601,-545 L 1604,-548 L 1601,-545 " fill="none" stroke="#000000" stroke-width="0.777"/>
<path d="M 1598,-547 L 1598,-547 " fill="none" stroke="#000000" stroke-width="0.777"/>
<path d="M 1588,-549 L 1588,-549 " fill="none" stroke="#000000" stroke-width="0.777"/>
<path d="M 1614,-550 L 1614,-550 " fill="none" stroke="#000000" stroke-width="0.777"/>
<path d="M 1603,-551 L 1603,-551 " fill="none" stroke="#000000" stroke-width="0.777"/>
<path d="M 1590,-552 L 1590,-552 " fill="none" stroke="#000000" stroke-width="0.777"/>
<path d="M 1608,-553 L 1608,-553 " fill="none" stroke="#000000" stroke-width="0.777"/>
<path d="M 1614,-552 L 1616,-553 L 1614,-552 " fill="none" stroke="#000000" stroke-width="0.777"/>
<path d="M 1590,-555 L 1590,-555 " fill="none" stroke="#000000" stroke-width="0.777"/>
<path d="M 1598,-555 L 1600,-558 L 1598,-555 " fill="none" stroke="#000000" stroke-width="0.777"/>
<path d="M 1604,-555 L 1604,-555 " fill="none" stroke="#000000" stroke-width="0.777"/>
<path d="M 1568,-559 L 1568,-559 " fill="none" stroke="#000000" stroke-width="0.777"/>
<path d="M 1593,-558 L 1593,-558 " fill="none" stroke="#000000" stroke-width="0.777"/>
<path d="M 1609,-559 L 1609,-559 " fill="none" stroke="#000000" stroke-width="0.777"/>
<path d="M 1612,-558 L 1612,-558 " fill="none" stroke="#000000" stroke-width="0.777"/>
<path d="M 1598,-560 L 1598,-560 " fill="none" stroke="#000000" stroke-width="0.777"/>
<path d="M 1597,-563 L 1597,-563 " fill="none" stroke="#000000" stroke-width="0.777"/>
<path d="M 1603,-562 L 1603,-562 " fill="none" stroke="#000000" stroke-width="0.777"/>
<path d="M 1566,-563 L 1566,-563 " fill="none" stroke="#000000" stroke-width="0.777"/>
<path d="M 1576,-565 L 1575,-567 L 1576,-565 " fill="none" stroke="#000000" stroke-width="0.777"/>
<path d="M 1580,-567 L 1582,-569 L 1580,-567 " fill="none" stroke="#000000" stroke-width="0.777"/>
<path d="M 1578,-568 L 1581,-572 L 1578,-568 " fill="none" stroke="#000000" stroke-width="0.777"/>
<path d="M 1528,-570 L 1528,-570 " fill="none" stroke="#000000" stroke-width="0.777"/>
<path d="M 1584,-570 L 1584,-570 " fill="none" stroke="#000000" stroke-width="0.777"/>
<path d="M 1531,-570 L 1531,-570 " fill="none" stroke="#000000" stroke-width="0.777"/>
<path d="M 1546,-572 L 1546,-572 " fill="none" stroke="#000000" stroke-width="0.777"/>
<path d="M 1565,-572 L 1566,-574 L 1565,-572 " fill="none" stroke="#000000" stroke-width="0.777"/>
<path d="M 1525,-573 L 1525,-573 " fill="none" stroke="#000000" stroke-width="0.777"/>
<path d="M 1535,-573 L 1537,-578 L 1535,-573 " fill="none" stroke="#000000" stroke-width="0.777"/>
<path d="M 1540,-573 L 1540,-573 " fill="none" stroke="#000000" stroke-width="0.777"/>
<path d="M 1588,-573 L 1588,-573 " fill="none" stroke="#000000" stroke-width="0.777"/>
<path d="M 1560,-575 L 1560,-575 " fill="none" stroke="#000000" stroke-width="0.777"/>
<path d="M 1543,-577 L 1546,-578 L 1543,-577 " fill="none" stroke="#000000" stroke-width="0.777"/>
<path d="M 1568,-577 L 1568,-580 L 1568,-577 " fill="none" stroke="#000000" stroke-width="0.777"/>
<path d="M 1560,-580 L 1560,-580 " fill="none" stroke="#000000" stroke-width="0.777"/>
<path d="M 1536,-581 L 1536,-581 " fill="none" stroke="#000000" stroke-width="0.777"/>
<path d="M 1556,-581 L 1556,-581 " fill="none" stroke="#000000" stroke-width="0.777"/>
<path d="M 1541,-583 L 1541,-583 " fill="none" stroke="#000000" stroke-width="0.777"/>
<path d="M 1533,-584 L 1533,-584 " fill="none" stroke="#000000" stroke-width="0.777"/>
<path d="M 1532,-587 L 1532,-587 " fill="none" stroke="#000000" stroke-width="0.777"/>
<path d="M 1565,-586 L 1565,-586 " fill="none" stroke="#000000" stroke-width="0.777"/>
<path d="M 1504,-589 L 1509,-595 L 1507,-592 L 1513,-594 L 1513,-591 L 1505,-592 L 1504,-589 " fill="none" stroke="#000000" stroke-width="0.777"/>
<path d="M 1522,-591 L 1522,-591 " fill="none" stroke="#000000" stroke-width="0.777"/>
<path d="M 1488,-592 L 1488,-592 " fill="none" stroke="#000000" stroke-width="0.777"/>
<path d="M 1545,-594 L 1545,-594 " fill="none" stroke="#000000" stroke-width="0.777"/>
<path d="M 1487,-596 L 1479,-600 L 1490,-597 L 1487,-596 " fill="none" stroke="#000000" stroke-width="0.777"/>
<path d="M 1528,-595 L 1528,-595 " fill="none" stroke="#000000" stroke-width="0.777"/>
<path d="M 1534,-595 L 1534,-595 " fill="none" stroke="#000000" stroke-width="0.777"/>
<path d="M 1495,-596 L 1495,-596 " fill="none" stroke="#000000" stroke-width="0.777"/>
<path d="M 1540,-597 L 1539,-603 L 1540,-597 " fill="none" stroke="#000000" stroke-width="0.777"/>
<path d="M 1570,-599 L 1570,-599 " fill="none" stroke="#000000" stroke-width="0.777"/>
<path d="M 1487,-599 L 1487,-599 " fill="none" stroke="#000000" stroke-width="0.777"/>
<path d="M 1496,-600 L 1496,-600 " fill="none" stroke="#000000" stroke-width="0.777"/>
<path d="M 1508,-599 L 1509,-601 L 1509,-604 L 1512,-600 L 1508,-599 " fill="none" stroke="#000000" stroke-width="0.777"/>
<path d="M 1541,-599 L 1544,-602 L 1541,-599 " fill="none" stroke="#000000" stroke-width="0.777"/>
<path d="M 1500,-601 L 1500,-601 " fill="none" stroke="#000000" stroke-width="0.777"/>
<path d="M 1512,-604 L 1512,-604 " fill="none" stroke="#000000" stroke-width="0.777"/>
<path d="M 1540,-605 L 1542,-606 L 1540,-605 " fill="none" stroke="#000000" stroke-width="0.777"/>
<path d="M 1471,-605 L 1479,-610 L 1475,-610 L 1471,-605 " fill="none" stroke="#000000" stroke-width="0.777"/>
<path d="M 1487,-606 L 1488,-609 L 1487,-606 " fill="none" stroke="#000000" stroke-width="0.777"/>
<path d="M 1464,-607 L 1459,-620 L 1459,-614 L 1461,-616 L 1462,-612 L 1465,-612 L 1464,-607 " fill="none" stroke="#000000" stroke-width="0.777"/>
<path d="M 1482,-607 L 1482,-607 " fill="none" stroke="#000000" stroke-width="0.777"/>
<path d="M 1536,-607 L 1536,-607 " fill="none" stroke="#000000" stroke-width="0.777"/>
<path d="M 1469,-610 L 1471,-612 L 1469,-610 " fill="none" stroke="#000000" stroke-width="0.777"/>
<path d="M 1454,-614 L 1452,-616 L 1456,-616 L 1454,-614 " fill="none" stroke="#000000" stroke-width="0.777"/>
<path d="M 1486,-615 L 1486,-615 " fill="none" stroke="#000000" stroke-width="0.777"/>
<path d="M 1490,-615 L 1490,-615 " fill="none" stroke="#000000" stroke-width="0.777"/>
<path d="M 1457,-620 L 1459,-621 L 1457,-620 " fill="none" stroke="#000000" stroke-width="0.777"/>
<path d="M 1456,-623 L 1458,-624 L 1456,-623 " fill="none" stroke="#000000" stroke-width="0.777"/>
<path d="M 1452,-626 L 1452,-626 " fill="none" stroke="#000000" stroke-width="0.777"/>
<path d="M 1458,-625 L 1458,-625 " fill="none" stroke="#000000" stroke-width="0.777"/>
<path d="M 1450,-628 L 1450,-628 " fill="none" stroke="#000000" stroke-width="0.777"/>
<path d="M 1457,-630 L 1458,-635 L 1457,-630 " fill="none" stroke="#000000" stroke-width="0.777"/>
<path d="M 1442,-631 L 1442,-631 " fill="none" stroke="#000000" stroke-width="0.777"/>
<path d="M 1449,-631 L 1449,-631 " fill="none" stroke="#000000" stroke-width="0.777"/>
<path d="M 1449,-633 L 1450,-635 L 1449,-633 " fill="none" stroke="#000000" stroke-width="0.777"/>
<path d="M 1455,-634 L 1455,-634 " fill="none" stroke="#000000" stroke-width="0.777"/>
<path d="M 1427,-638 L 1426,-644 L 1427,-638 " fill="none" stroke="#000000" stroke-width="0.777"/>
<path d="M 1432,-639 L 1432,-639 " fill="none" stroke="#000000" stroke-width="0.777"/>
<path d="M 1434,-642 L 1434,-642 " fill="none" stroke="#000000" stroke-width="0.777"/>
<path d="M 1432,-645 L 1432,-645 " fill="none" stroke="#000000" stroke-width="0.777"/>
<path d="M 1418,-646 L 1418,-646 " fill="none" stroke="#000000" stroke-width="0.777"/>
<path d="M 1427,-649 L 1427,-649 " fill="none" stroke="#000000" stroke-width="0.777"/>
<path d="M 1432,-648 L 1433,-650 L 1432,-648 " fill="none" stroke="#000000" stroke-width="0.777"/>
<path d="M 1416,-649 L 1416,-649 " fill="none" stroke="#000000" stroke-width="0.777"/>
<path d="M 1423,-651 L 1423,-651 " fill="none" stroke="#000000" stroke-width="0.777"/>
<path d="M 1392,-668 L 1392,-668 " fill="none" stroke="#000000" stroke-width="0.777"/>
<path d="M 1400,-674 L 1400,-674 " fill="none" stroke="#000000" stroke-width="0.777"/>
<path d="M 1378,-674 L 1378,-674 " fill="none" stroke="#000000" stroke-width="0.777"/>
<path d="M 1369,-675 L 1369,-675 " fill="none" stroke="#000000" stroke-width="0.777"/>
<path d="M 1373,-678 L 1376,-679 L 1373,-678 " fill="none" stroke="#000000" stroke-width="0.777"/>
<path d="M 1355,-681 L 1358,-681 L 1355,-681 " fill="none" stroke="#000000" stroke-width="0.777"/>
<path d="M 1363,-683 L 1359,-685 L 1363,-687 L 1363,-683 " fill="none" stroke="#000000" stroke-width="0.777"/>
<path d="M 1369,-684 L 1369,-684 " fill="none" stroke="#000000" stroke-width="0.777"/>
<path d="M 1358,-686 L 1361,-688 L 1358,-686 " fill="none" stroke="#000000" stroke-width="0.777"/>
<path d="M 1364,-688 L 1364,-688 " fill="none" stroke="#000000" stroke-width="0.777"/>
<path d="M 1352,-690 L 1352,-690 " fill="none" stroke="#000000" stroke-width="0.777"/>
<path d="M 1361,-689 L 1362,-692 L 1361,-689 " fill="none" stroke="#000000" stroke-width="0.777"/>
<path d="M 1342,-691 L 1342,-691 " fill="none" stroke="#000000" stroke-width="0.777"/>
<path d="M 1342,-705 L 1342,-705 " fill="none" stroke="#000000" stroke-width="0.777"/>
<path d="M 1332,-707 L 1329,-713 L 1335,-707 L 1332,-707 " fill="none" stroke="#000000" stroke-width="0.777"/>
<path d="M 1303,-728 L 1303,-728 " fill="none" stroke="#000000" stroke-width="0.777"/>
<path d="M 1302,-733 L 1302,-733 " fill="none" stroke="#000000" stroke-width="0.777"/>
<path d="M 1296,-733 L 1299,-735 L 1302,-736 L 1296,-733 " fill="none" stroke="#000000" stroke-width="0.777"/>
<path d="M 1295,-736 L 1295,-736 " fill="none" stroke="#000000" stroke-width="0.777"/>
<path d="M 1304,-738 L 1308,-739 L 1304,-738 " fill="none" stroke="#000000" stroke-width="0.777"/>
<path d="M 1290,-744 L 1286,-747 L 1288,-750 L 1291,-748 L 1290,-744 " fill="none" stroke="#000000" stroke-width="0.777"/>
<path d="M 1280,-746 L 1286,-750 L 1280,-746 " fill="none" stroke="#000000" stroke-width="0.777"/>
<path d="M 1299,-747 L 1299,-747 " fill="none" stroke="#000000" stroke-width="0.777"/>
<path d="M 1310,-746 L 1310,-746 " fill="none" stroke="#000000" stroke-width="0.777"/>
</g></svg>
