<?xml version="1.0" standalone="no"?>
<!DOCTYPE svg PUBLIC "-//W3C//DTD SVG 20010904//EN"
 "http://www.w3.org/TR/2001/REC-SVG-20010904/DTD/svg10.dtd">
<svg version="1.0" xmlns="http://www.w3.org/2000/svg"
 width="1125.000000pt" height="2000.000000pt" viewBox="0 0 1125.000000 2000.000000"
 preserveAspectRatio="xMidYMid meet">
<metadata>
Created by potrace 1.16, written by Peter Selinger 2001-2019
</metadata>
<g transform="translate(0.000000,2000.000000) scale(0.100000,-0.100000)"
fill="#000000" stroke="none">
<path d="M5625 17500 l-5625 0 0 -7500 0 -7500 3084 0 c1696 0 3092 3 3101 6
14 6 14 8 -2 28 -18 21 -18 21 4 3 13 -12 27 -16 35 -11 10 6 10 4 -1 -9 -7
-9 -9 -17 -4 -17 5 0 14 5 21 12 9 9 12 9 12 -2 0 -8 9 -2 19 14 11 17 18 33
15 38 -3 4 0 8 5 8 6 0 11 -4 11 -9 0 -5 18 -8 40 -7 29 0 39 4 35 14 -4 10 2
12 23 9 15 -2 21 -2 14 0 -7 3 -11 10 -9 16 3 7 9 11 15 10 5 -1 12 11 14 27
2 16 1 27 -4 24 -4 -3 -15 2 -24 10 -14 15 -14 16 1 16 15 0 15 2 1 22 -9 12
-16 25 -16 29 0 4 7 10 16 13 12 5 14 1 10 -17 -3 -12 -3 -16 0 -9 3 6 17 12
30 12 13 0 24 -5 24 -12 0 -6 3 -8 6 -5 4 4 1 14 -7 24 -9 11 -10 14 -1 9 8
-5 12 -1 12 10 0 16 1 16 14 -1 13 -18 14 -18 9 9 -4 21 -2 27 6 22 6 -4 9
-11 6 -16 -3 -5 -1 -11 5 -15 5 -3 10 0 10 7 0 9 3 9 10 -2 8 -13 11 -11 16 7
4 13 10 23 14 23 4 0 10 -7 14 -15 3 -8 11 -15 18 -14 10 0 10 2 0 6 -6 2 -10
9 -6 14 3 5 0 9 -7 9 -8 0 -8 4 -1 13 9 10 3 13 -24 14 -18 0 -34 -3 -34 -8 0
-5 -9 -9 -20 -9 -14 0 -18 5 -13 17 4 10 2 14 -5 9 -6 -3 -13 -2 -16 3 -3 5 1
14 9 21 8 7 15 16 15 21 0 5 -9 9 -20 9 -11 0 -20 4 -20 9 0 6 5 13 12 17 7 4
8 3 4 -4 -5 -8 5 -12 33 -12 23 0 41 -4 41 -10 0 -5 -7 -7 -15 -4 -9 4 -15 0
-15 -9 0 -8 -6 -18 -12 -21 -7 -3 -3 -3 9 0 14 3 25 -1 33 -13 9 -16 10 -15 8
7 -2 16 2 25 11 25 8 0 16 -7 18 -15 4 -13 3 -13 -7 0 -10 13 -11 13 -7 0 2
-8 11 -14 21 -12 9 2 16 -1 16 -6 0 -5 7 -9 15 -9 8 0 12 4 9 9 -3 4 4 8 15 8
11 0 25 8 31 18 9 14 10 13 4 -8 -7 -25 -7 -25 15 -6 21 19 22 19 36 0 8 -10
15 -15 15 -11 0 5 -5 17 -10 28 -7 11 -7 19 -1 19 5 0 11 -6 14 -12 2 -7 4 1
4 18 0 25 -4 30 -19 26 -10 -2 -18 -12 -18 -21 0 -14 -2 -14 -10 -1 -5 9 -5
17 1 21 6 3 4 11 -5 18 -9 7 -15 24 -14 37 2 22 3 22 21 6 10 -9 16 -24 14
-34 -3 -10 -3 -18 0 -18 2 0 13 5 24 10 10 6 19 17 19 25 0 8 7 16 15 16 8 1
19 2 23 3 5 0 16 9 26 18 9 10 14 24 11 30 -4 7 0 5 9 -6 8 -10 19 -15 24 -12
6 3 8 -2 5 -12 -3 -12 1 -19 10 -19 8 0 13 6 10 13 -2 7 4 14 14 17 14 4 14 5
-4 6 -13 0 -23 7 -23 14 0 8 -4 7 -10 -3 -8 -13 -11 -12 -16 6 -3 13 -13 21
-22 19 -10 -1 -11 0 -4 2 6 3 12 10 12 16 0 7 5 5 10 -5 6 -9 18 -14 29 -11
10 3 22 0 25 -6 4 -6 11 -11 17 -11 5 0 9 5 9 10 0 6 -6 10 -14 10 -8 0 -17 7
-20 16 -3 9 -6 17 -6 19 0 3 12 11 27 19 l28 15 -25 1 c-14 1 -19 4 -12 7 6 2
12 11 12 19 0 9 4 13 9 9 5 -3 12 -1 15 4 4 5 -4 12 -16 14 l-23 4 23 2 c12 0
22 6 22 11 0 6 -5 10 -12 10 -9 0 -9 3 -1 11 6 6 9 19 6 28 -4 13 -3 14 5 1 6
-8 8 -18 6 -22 -3 -4 2 -8 11 -8 13 0 16 6 11 28 -5 27 -5 27 6 3 10 -19 9
-25 -5 -36 -9 -6 -14 -15 -11 -18 4 -4 15 5 26 18 11 14 28 25 39 25 10 0 19
-5 19 -11 0 -8 5 -7 15 1 9 7 19 10 22 6 4 -4 1 -11 -7 -16 -11 -7 -11 -10 -2
-10 7 0 15 7 19 16 3 8 12 13 19 10 8 -3 14 -2 14 3 0 4 11 13 25 19 14 7 36
12 49 12 13 0 29 7 36 15 7 9 10 18 7 21 -3 4 1 13 9 21 8 8 11 19 8 25 -4 6
-10 5 -16 -3 -7 -10 -8 -8 -3 7 4 15 0 24 -11 28 -9 3 -21 3 -26 -1 -6 -3 -8
-1 -4 5 3 6 21 10 39 10 17 -1 26 -3 20 -5 -10 -4 -10 -9 -1 -26 7 -12 11 -26
10 -31 -2 -4 3 -15 10 -24 9 -11 9 -13 1 -9 -8 5 -10 -1 -7 -20 3 -15 7 -29 8
-31 2 -1 6 4 9 13 4 8 1 15 -6 15 -8 0 -7 3 2 9 10 7 18 5 26 -6 8 -10 19 -13
33 -9 12 4 22 12 22 19 0 8 -3 8 -12 -1 -7 -7 -17 -12 -23 -12 -6 0 -18 13
-28 29 -16 27 -16 29 1 42 16 13 16 13 2 -5 -14 -18 -13 -19 1 -14 9 4 21 2
27 -4 6 -6 12 -6 17 3 5 7 4 10 -3 5 -6 -3 -13 -2 -17 4 -3 5 2 10 11 10 16 0
16 1 0 19 -17 19 -17 19 5 14 15 -4 20 -3 15 5 -4 7 -2 12 3 12 6 0 11 -9 11
-19 0 -10 7 -21 15 -24 8 -4 17 -2 20 3 4 6 11 10 17 10 7 0 7 -4 -1 -14 -9
-10 -7 -17 6 -27 11 -9 14 -10 9 -1 -4 6 -3 12 1 12 5 0 14 -5 21 -12 9 -9 12
-9 12 1 0 7 3 10 8 8 4 -3 12 1 19 8 9 10 7 17 -10 31 -20 18 -21 18 -7 1 11
-15 11 -20 0 -27 -7 -4 -19 -6 -27 -3 -7 3 -10 9 -7 14 3 6 0 17 -7 25 -9 11
-9 21 -1 39 7 14 16 25 22 25 5 0 10 -5 10 -11 0 -5 4 -7 10 -4 5 3 10 11 10
16 0 6 -4 8 -9 5 -5 -3 -14 1 -21 9 -11 13 -9 15 11 11 13 -3 27 -5 31 -5 4
-1 5 -8 2 -16 -5 -11 -2 -13 10 -9 10 4 18 0 22 -10 3 -9 11 -16 16 -16 6 0 8
7 4 15 -4 11 1 15 19 15 14 0 25 -6 25 -12 0 -9 4 -8 10 2 5 8 10 11 10 5 0
-5 5 -3 11 5 9 13 10 12 5 -2 -3 -10 -1 -20 5 -23 5 -4 7 -12 3 -18 -3 -7 1
-4 9 6 8 9 18 17 23 17 6 0 10 9 11 20 1 14 -4 20 -18 20 -11 0 -22 7 -25 15
-4 8 -10 13 -14 10 -5 -3 -12 0 -16 6 -4 8 -9 7 -15 -2 -7 -11 -9 -10 -9 4 0
11 -4 15 -12 11 -7 -5 -8 -3 -4 5 5 7 15 10 23 7 11 -5 13 -1 8 17 -3 12 -3
18 2 12 4 -5 14 -11 21 -12 6 -2 12 2 12 7 0 6 14 10 30 10 20 0 30 -5 30 -15
0 -8 6 -15 13 -15 9 0 9 -2 -1 -9 -11 -7 -11 -9 1 -14 11 -4 14 3 12 34 -2 22
-8 45 -14 53 -8 10 -6 17 7 29 10 9 33 16 52 15 19 0 43 0 53 0 10 1 15 7 12
12 -3 6 -2 10 4 10 5 0 16 -6 24 -14 8 -9 19 -11 27 -6 11 7 8 13 -13 30 -15
12 -27 27 -27 33 0 7 4 6 10 -3 9 -13 12 -13 21 3 7 13 18 16 42 12 23 -4 28
-3 17 5 -11 7 -11 10 -2 10 7 0 19 15 27 34 12 28 19 34 39 32 14 -2 23 1 20
5 -3 5 2 12 10 15 9 3 16 9 16 13 0 3 -14 7 -32 7 -18 1 -34 6 -36 13 -2 6 -9
9 -15 5 -7 -3 -4 1 6 9 9 8 17 24 17 36 0 15 4 20 13 16 6 -4 1 2 -13 14 l-25
20 25 -2 c14 0 28 -6 32 -12 5 -6 8 -6 8 3 0 6 7 12 16 12 11 0 14 6 9 20 -5
15 -3 18 9 14 9 -3 16 -1 16 5 0 6 5 11 12 11 6 0 4 -8 -6 -19 -10 -11 -16
-26 -13 -33 4 -10 6 -9 6 2 1 8 9 20 19 27 11 6 25 8 32 3 7 -5 9 -13 4 -21
-6 -12 -5 -12 9 0 9 7 17 21 17 31 0 10 7 20 15 24 8 3 15 1 15 -4 0 -6 0 -13
-1 -17 -1 -5 -5 -7 -10 -6 -5 2 -9 -2 -9 -7 0 -6 13 -8 33 -5 17 4 34 11 35
16 3 6 10 5 20 -3 14 -12 14 -10 3 10 -6 12 -9 27 -6 32 3 6 1 10 -4 10 -6 0
-11 5 -11 11 0 5 5 7 11 3 8 -4 9 0 4 15 -4 15 -3 21 7 19 7 -2 12 2 11 7 -1
6 10 11 25 10 15 0 30 -4 33 -8 4 -5 12 -2 20 6 7 7 22 12 33 9 12 -3 17 -1
12 6 -3 6 -2 13 3 16 5 3 11 -6 14 -19 2 -14 0 -28 -4 -31 -5 -3 -9 1 -9 8 0
8 -5 6 -11 -5 -6 -10 -8 -21 -5 -24 3 -4 6 -1 6 7 0 9 4 10 13 2 7 -6 26 -13
42 -16 29 -5 29 -4 10 10 -19 15 -19 15 -1 12 10 -2 21 3 24 11 3 9 0 11 -8 6
-8 -5 -5 4 6 18 10 15 23 27 27 27 5 0 18 -5 30 -11 20 -9 20 -9 4 4 -9 8 -17
20 -17 27 0 9 4 9 13 2 6 -5 21 -6 31 -2 14 4 16 9 8 14 -7 4 -16 5 -21 1 -5
-3 -12 -2 -15 3 -2 4 4 8 14 9 11 1 22 -3 25 -8 4 -5 11 -7 16 -4 5 3 6 -1 3
-9 -3 -9 -12 -16 -18 -16 -7 0 -13 -7 -13 -15 0 -12 5 -11 23 6 13 12 25 31
27 43 4 20 4 20 6 -1 1 -17 7 -23 24 -23 13 0 26 -3 30 -6 3 -3 3 -12 0 -20
-3 -8 -9 -14 -14 -14 -4 0 -5 8 -2 18 6 15 5 15 -10 3 -12 -9 -17 -10 -17 -2
0 7 -5 9 -11 5 -8 -4 -2 -12 16 -22 26 -13 30 -13 41 3 7 9 10 24 8 33 -3 10
1 7 8 -6 13 -20 16 -21 33 -7 11 8 25 14 30 15 6 0 4 -4 -4 -9 -10 -7 -11 -13
-2 -27 8 -14 11 -15 11 -4 0 8 3 25 6 37 5 19 3 22 -16 18 -17 -3 -19 -1 -11
8 7 9 5 16 -9 25 -15 9 -19 8 -23 -6 -3 -12 -5 -11 -6 6 0 12 -5 22 -10 22 -5
0 -11 -9 -14 -19 -3 -14 -11 -18 -26 -14 -11 3 -18 9 -15 14 3 5 12 9 20 9 8
0 13 4 10 9 -3 5 0 11 8 14 8 3 22 4 33 3 10 -2 12 -1 6 1 -10 3 -10 10 -2 25
6 11 8 22 5 26 -3 3 -6 0 -6 -6 0 -7 -4 -12 -10 -12 -6 0 -6 9 0 26 6 14 10
27 10 29 0 2 -10 1 -22 -3 -20 -5 -21 -3 -11 10 7 8 10 18 6 21 -3 4 3 7 15 7
13 0 22 -6 22 -15 0 -8 7 -15 16 -15 8 0 25 5 36 11 18 9 24 8 37 -10 12 -16
20 -18 31 -10 13 9 13 10 -1 6 -10 -3 -20 3 -27 16 -6 12 -13 39 -16 59 -3 25
0 40 8 45 7 5 16 15 19 23 4 12 6 11 6 -3 1 -10 5 -15 11 -12 5 3 10 0 10 -8
0 -8 -7 -18 -16 -21 -9 -3 -20 -4 -25 0 -5 3 -9 3 -9 0 0 -2 7 -12 16 -21 9
-9 24 -13 35 -10 11 4 19 2 19 -4 0 -6 -6 -12 -12 -12 -7 -1 -16 -1 -20 0 -5
0 -8 -8 -8 -18 0 -11 9 -23 20 -26 11 -3 20 -13 20 -21 0 -8 -8 -14 -17 -14
-12 0 -14 -3 -6 -11 6 -6 16 -8 22 -5 6 4 11 14 11 21 0 9 6 12 15 9 8 -4 17
1 21 10 3 9 11 16 16 16 6 0 5 -6 -2 -15 -10 -13 -9 -15 9 -15 15 0 20 4 15
13 -6 9 -4 9 8 -1 10 -8 26 -10 44 -6 22 6 26 4 21 -9 -4 -12 -2 -14 11 -10
14 5 15 3 5 -8 -7 -7 -13 -19 -13 -26 0 -7 5 -13 11 -13 5 0 7 5 4 10 -4 6 7
10 25 10 17 0 29 -4 26 -8 -3 -5 1 -9 9 -9 13 0 13 2 1 16 -8 9 -16 23 -18 31
-2 11 5 14 32 11 30 -3 33 -1 21 13 -7 9 -17 14 -21 11 -5 -3 -10 -1 -12 4 -1
5 -15 7 -30 4 -15 -3 -25 -9 -22 -14 3 -5 -2 -9 -10 -9 -8 0 -14 6 -12 13 1 6
1 9 -1 5 -3 -5 -16 -8 -30 -8 -13 0 -31 7 -39 15 -14 13 -14 17 0 30 8 8 17
15 20 15 3 0 6 -6 6 -14 0 -9 9 -14 20 -13 11 1 20 4 20 7 0 3 -5 12 -10 20
-8 12 -10 12 -10 -5 -1 -18 -2 -18 -11 3 -5 13 -13 20 -19 17 -5 -3 -10 -1
-10 4 0 6 -5 11 -11 11 -5 0 -7 -4 -4 -10 3 -5 -1 -10 -9 -10 -9 0 -16 -7 -16
-15 0 -12 -4 -13 -19 -5 -14 7 -21 6 -24 -3 -3 -7 -6 -5 -6 6 -1 9 4 17 10 17
8 0 8 5 -1 15 -7 8 -9 15 -5 15 4 0 2 7 -5 15 -11 13 -11 18 0 28 10 10 11 9
6 -3 -7 -13 -6 -13 6 0 7 8 27 17 43 18 17 2 27 1 23 -4 -4 -4 -2 -14 4 -23 8
-10 4 -9 -9 3 -20 17 -23 17 -29 3 -3 -9 -3 -20 0 -26 4 -5 18 -8 32 -7 13 2
30 8 36 14 7 7 16 12 21 12 4 0 5 -4 2 -10 -3 -5 1 -10 11 -10 13 0 14 -3 4
-15 -10 -12 -8 -14 9 -10 11 2 20 -1 18 -7 -1 -6 4 -13 11 -15 7 -3 11 0 10 7
-2 6 7 19 20 27 20 14 22 14 22 -1 0 -9 4 -16 9 -16 6 0 13 5 16 10 3 6 10 10
16 10 5 0 9 -6 9 -14 0 -8 6 -16 13 -19 8 -3 20 -1 28 4 8 5 19 9 26 9 6 0 10
-11 9 -25 -2 -13 1 -22 5 -19 5 3 9 18 9 34 0 23 3 27 20 23 12 -3 21 -14 21
-27 1 -11 0 -25 -1 -31 -1 -5 2 -6 7 -2 4 5 9 13 9 18 1 5 2 12 3 17 1 4 5 1
10 -6 6 -10 10 -7 13 11 4 19 1 24 -10 19 -11 -4 -14 -1 -9 11 3 9 1 19 -5 23
-6 4 -16 0 -23 -9 -7 -10 -16 -17 -20 -17 -4 0 -4 11 -1 24 4 15 1 26 -7 29
-6 3 -2 6 10 6 12 1 25 6 29 13 4 6 2 14 -4 16 -7 2 -12 8 -12 14 0 5 9 7 19
3 11 -3 22 -1 26 5 3 5 11 10 17 10 6 0 3 -9 -6 -19 -10 -11 -16 -26 -13 -33
4 -8 6 -7 6 5 1 9 7 17 15 17 8 0 16 6 19 13 2 6 8 0 12 -15 4 -14 15 -28 25
-31 10 -2 24 -1 31 4 9 5 10 9 3 9 -7 0 -15 7 -18 16 -3 8 -2 12 4 9 6 -3 10
-1 10 4 0 6 -3 11 -8 11 -4 0 -8 14 -8 30 -1 17 3 30 8 30 5 0 6 4 3 10 -3 6
1 7 9 4 9 -3 17 -11 17 -18 1 -6 1 -14 0 -18 0 -4 8 -6 19 -5 10 1 16 5 14 9
-3 4 0 8 6 8 6 0 8 5 5 10 -5 8 -12 7 -23 -2 -15 -11 -15 -11 -5 3 7 9 10 19
6 22 -3 4 0 13 7 22 7 8 16 12 21 9 5 -3 6 3 3 13 -5 16 -4 16 8 2 7 -8 21
-18 31 -22 10 -4 15 -12 12 -18 -5 -6 0 -9 11 -8 11 2 25 0 32 -4 8 -6 15 0
21 15 10 22 10 22 10 1 1 -16 6 -20 21 -16 14 4 21 -1 26 -21 3 -14 10 -26 15
-26 5 0 9 9 9 19 0 11 -6 22 -12 24 -9 4 -8 6 3 6 8 1 20 -4 26 -10 8 -8 16
-7 30 2 11 6 25 25 31 41 l11 29 30 -22 c17 -12 34 -19 38 -15 4 4 1 11 -6 16
-11 6 -8 14 13 34 14 15 26 32 26 37 0 6 -8 3 -17 -6 -15 -15 -18 -16 -28 -2
-9 13 -12 13 -21 1 -7 -10 -13 -11 -24 -3 -13 9 -12 10 3 5 9 -3 17 -2 17 3 0
5 -7 14 -15 21 -8 7 -15 15 -15 19 0 3 12 7 27 8 14 0 30 8 35 17 5 9 14 16
20 16 7 0 6 -5 -2 -15 -11 -13 -8 -15 13 -15 19 0 25 -4 21 -15 -4 -9 0 -15
10 -15 9 0 16 -6 16 -14 0 -8 -7 -16 -15 -20 -8 -3 -15 -12 -15 -20 0 -8 -8
-17 -17 -20 -15 -4 -15 -5 2 -4 11 0 25 0 30 -1 6 -1 3 -6 -5 -12 -12 -8 -12
-9 5 -7 10 2 28 11 38 21 10 11 17 27 14 37 -3 11 1 21 10 24 11 5 13 1 8 -17
-6 -17 -5 -19 5 -11 7 7 9 21 5 33 -3 11 -11 20 -18 18 -6 -1 -12 3 -12 8 -1
6 -5 18 -9 27 -5 10 -12 15 -17 12 -5 -3 -9 -1 -9 4 0 5 3 12 7 16 4 4 8 17 8
29 1 13 10 32 20 44 15 17 23 20 43 12 20 -8 23 -7 18 6 -3 8 -1 15 4 15 6 0
10 -5 10 -11 0 -6 6 -9 13 -6 9 3 12 -4 11 -22 -1 -14 -2 -30 -3 -34 0 -5 -7
-5 -13 -1 -9 5 -9 3 1 -9 7 -9 17 -14 22 -11 5 3 9 0 9 -5 0 -6 -5 -11 -11
-11 -5 0 -7 -4 -4 -10 4 -6 12 -5 21 3 8 6 24 21 34 31 11 10 17 24 13 29 -3
6 -1 7 6 3 6 -4 9 -11 6 -16 -3 -5 4 -7 16 -5 12 2 24 7 27 10 3 3 -3 5 -13 5
-18 0 -18 0 0 13 11 9 15 19 10 27 -6 10 -2 11 20 6 23 -6 26 -5 17 6 -7 9 -8
19 -2 28 6 8 10 18 10 22 0 4 -12 4 -27 2 l-27 -5 24 24 c14 13 27 24 30 24 3
0 11 1 18 2 6 0 12 5 12 9 0 5 -7 17 -16 28 -8 10 -12 13 -8 5 5 -11 3 -13
-11 -7 -15 5 -16 4 -5 -9 7 -8 8 -15 3 -15 -5 0 -15 6 -23 13 -12 10 -12 9 -1
-5 12 -15 11 -18 -3 -18 -10 0 -14 -4 -11 -10 3 -5 1 -10 -6 -10 -7 0 -9 10
-6 26 3 18 1 22 -6 15 -6 -6 -14 -11 -17 -11 -3 0 -6 9 -6 20 0 11 6 20 14 20
7 0 11 3 9 7 -3 5 6 16 19 26 14 10 24 15 23 10 -1 -4 -1 -15 0 -23 1 -11 6
-10 19 6 9 12 27 24 40 27 18 4 21 3 13 -7 -6 -7 -7 -17 -3 -21 4 -5 2 -5 -4
-2 -7 4 -14 1 -17 -6 -3 -8 -2 -20 3 -26 5 -9 10 -10 14 -2 4 6 19 11 34 12
15 0 21 3 14 6 -10 4 -10 8 -1 19 8 10 8 14 0 14 -6 0 -11 4 -11 9 0 5 7 17
16 25 10 10 11 16 3 16 -8 0 -9 3 0 14 9 10 7 13 -6 13 -10 0 -26 1 -35 2 -12
1 -15 6 -11 17 5 12 7 13 14 3 6 -10 10 -8 16 9 l9 23 21 -21 c13 -12 24 -16
28 -10 4 6 -4 14 -17 19 -17 7 -19 10 -5 10 9 1 17 6 17 11 0 6 6 10 14 10 7
0 19 -7 26 -15 7 -8 16 -15 21 -15 5 0 5 7 2 17 -5 12 -3 14 8 8 12 -8 12 -6
0 8 -12 15 -10 17 15 17 16 0 24 4 18 8 -6 4 -11 16 -11 27 0 11 11 39 24 62
14 25 20 44 14 44 -6 1 -17 2 -23 3 -7 1 -19 9 -27 19 -7 10 -10 21 -7 25 4 3
16 1 26 -6 11 -6 26 -9 35 -6 8 3 13 10 10 14 -3 4 12 18 33 30 20 12 34 19
30 14 -5 -4 2 -13 15 -19 12 -6 25 -10 29 -8 5 2 8 9 8 14 0 6 -5 7 -12 3 -7
-5 -8 -3 -3 5 4 7 16 10 27 8 16 -5 17 -3 7 9 -9 12 -8 14 7 11 11 -2 30 -9
44 -16 14 -8 28 -18 31 -23 3 -5 12 -1 20 8 12 16 12 17 -3 11 -10 -3 -22 1
-30 11 -11 13 -11 14 1 8 8 -5 16 -3 21 4 5 7 6 19 3 27 -3 7 -16 13 -29 13
-19 0 -24 5 -24 24 0 13 -7 26 -15 30 -8 3 -15 15 -15 26 0 11 -5 20 -11 20
-8 0 -8 5 1 15 7 8 9 15 4 15 -5 0 -2 5 6 10 8 5 18 10 22 10 4 0 5 -7 1 -16
-5 -14 -3 -15 15 -5 11 6 24 11 28 11 4 0 -1 -9 -11 -20 -10 -11 -15 -23 -11
-28 4 -4 14 2 23 13 8 11 19 19 25 17 7 -2 6 3 -2 12 -7 9 -9 16 -4 16 5 0 2
5 -6 10 -12 8 -11 10 6 10 12 0 25 8 30 18 4 9 6 21 5 25 -1 5 3 6 8 3 4 -3 9
6 9 19 -1 20 -4 24 -19 20 -13 -4 -19 -1 -19 9 0 10 7 13 23 9 12 -2 32 -5 44
-4 12 0 27 -7 33 -17 9 -15 10 -14 5 5 -5 17 -2 22 14 20 14 -1 22 -11 26 -29
4 -15 11 -28 16 -28 5 0 9 -6 9 -14 0 -7 7 -19 15 -26 10 -9 15 -9 15 -1 0 6
-3 11 -7 11 -5 0 -13 12 -20 26 -6 14 -9 32 -6 40 3 7 10 11 16 7 6 -3 7 -1 3
6 -4 6 -11 9 -15 7 -4 -3 -13 4 -20 16 -9 15 -10 18 0 13 8 -5 10 -4 5 4 -4 6
0 18 8 27 9 8 16 11 16 6 0 -5 9 -12 21 -15 12 -3 18 -3 15 0 -3 4 0 13 6 22
7 9 8 13 4 9 -5 -4 -15 -3 -21 2 -9 7 -19 5 -35 -8 -14 -11 -33 -17 -47 -14
-14 3 -23 11 -23 22 0 10 6 20 14 23 8 3 12 15 9 31 -3 14 -8 24 -12 23 -3 -1
-7 2 -8 8 -2 5 3 10 10 11 6 0 18 2 25 2 6 1 12 7 12 13 0 6 -10 19 -22 28
-12 10 -22 29 -22 44 -1 14 2 23 7 20 5 -3 7 -14 4 -24 -3 -10 1 -23 9 -29 7
-7 19 -8 25 -4 7 4 9 3 6 -3 -4 -6 2 -22 14 -34 l20 -24 -11 23 c-6 13 -10 29
-7 35 2 7 -1 17 -8 24 -7 6 -16 9 -19 5 -4 -3 -4 2 0 13 5 11 9 14 12 7 2 -7
15 -12 28 -12 14 0 22 -4 19 -10 -3 -5 -1 -10 6 -10 7 0 4 -6 -7 -14 -10 -8
-17 -16 -14 -19 3 -2 16 7 30 21 14 13 19 22 13 18 -7 -4 -13 -2 -13 3 0 6 12
11 26 11 19 0 25 4 21 14 -4 10 -1 13 9 9 7 -3 15 0 15 6 1 6 2 14 3 19 1 4 5
12 9 19 4 6 3 14 -3 18 -5 3 -10 1 -10 -5 0 -8 -9 -10 -26 -6 -17 5 -23 3 -19
-4 3 -5 1 -10 -5 -10 -6 0 -8 -4 -5 -10 3 -5 -4 -10 -15 -10 -17 0 -21 -4 -16
-17 5 -16 5 -16 -6 -2 -7 9 -13 31 -13 50 0 31 3 34 28 32 15 -1 27 2 27 7 0
6 -4 10 -10 10 -6 0 -6 10 1 27 5 14 8 32 5 39 -3 9 6 7 27 -5 31 -17 33 -17
33 0 0 9 -3 16 -7 13 -4 -2 -9 2 -12 10 -4 10 0 12 14 9 15 -4 19 0 19 21 0
23 -2 25 -19 16 -14 -7 -22 -7 -26 0 -5 8 -11 7 -21 -1 -8 -6 -18 -8 -22 -4
-4 4 3 14 16 22 12 9 22 23 23 32 0 10 2 11 6 4 2 -7 11 -13 18 -13 8 0 22
-13 31 -29 10 -17 22 -27 27 -24 6 4 7 1 1 -8 -5 -8 -9 -26 -10 -41 0 -16 3
-28 8 -28 4 0 8 5 8 10 0 6 5 10 11 10 6 0 9 -6 6 -14 -4 -10 3 -13 24 -12 24
1 28 4 23 21 -5 15 -3 17 6 9 6 -7 20 -10 29 -7 16 4 18 17 19 86 1 48 -3 84
-10 88 -5 4 -19 4 -29 2 -10 -3 -16 -9 -13 -14 3 -5 3 -9 1 -9 -3 0 -20 6 -38
14 -19 7 -39 11 -46 9 -9 -3 -9 4 -1 31 6 19 15 33 20 30 4 -3 5 -11 1 -17 -4
-7 0 -6 10 2 9 7 14 18 10 25 -3 6 0 6 8 -1 7 -7 22 -13 32 -13 14 0 18 -5 14
-20 -3 -11 0 -23 5 -27 7 -3 8 -1 4 5 -4 7 -2 12 3 12 6 0 11 -4 11 -10 0 -5
5 -10 10 -10 6 0 10 11 10 25 0 13 -8 29 -17 35 -17 11 -17 11 0 6 16 -5 17
260 17 5474 l0 5480 -5625 0z m5540 -10680 c3 0 2 -7 -2 -15 -3 -9 -8 -14 -10
-11 -3 3 -2 9 2 15 3 6 8 11 10 11z m-175 -150 c6 0 13 -7 16 -15 4 -8 10 -13
14 -10 5 3 11 1 14 -4 3 -5 0 -11 -8 -14 -8 -3 -21 5 -30 19 -9 13 -12 24 -6
24z m-20 -50 c6 0 10 -2 10 -4 0 -3 -4 -8 -10 -11 -5 -3 -10 -1 -10 4 0 6 5
11 10 11z m224 -60 c3 0 8 -4 11 -10 3 -5 1 -10 -4 -10 -6 0 -11 5 -11 10 0 6
2 10 4 10z m-288 -20 c8 0 12 -4 9 -10 -3 -5 -10 -10 -16 -10 -5 0 -9 5 -9 10
0 6 7 10 16 10z m179 -6 c8 -4 15 -8 15 -10 0 -2 -7 -4 -15 -4 -8 0 -15 4 -15
10 0 5 7 7 15 4z m-5 -24 c11 0 20 -2 20 -4 0 -2 -9 -6 -20 -9 -11 -3 -20 -1
-20 4 0 5 9 9 20 9z m-131 -30 c6 0 11 -4 11 -10 0 -5 -2 -10 -4 -10 -3 0 -8
5 -11 10 -3 6 -1 10 4 10z m193 -18 c9 -2 24 -14 32 -26 10 -16 11 -27 4 -37
-8 -11 -9 -10 -4 5 5 13 2 17 -9 13 -8 -4 -21 3 -30 16 -8 12 -15 16 -15 8 0
-11 -3 -11 -16 0 -14 12 -14 14 2 19 10 4 26 5 36 2z m-61 -27 c5 -4 9 -10 9
-15 0 -5 -7 -7 -15 -4 -8 4 -12 10 -9 15 3 5 10 7 15 4z m-121 -25 c5 0 7 -8
4 -17 -5 -17 -5 -17 6 0 6 9 18 17 25 17 8 0 15 -3 15 -6 0 -4 -10 -15 -22
-26 -13 -11 -23 -25 -23 -31 0 -7 6 -18 15 -24 13 -11 12 -12 -7 -10 -12 2
-25 5 -27 8 -3 2 -7 17 -10 32 -2 15 0 27 5 27 5 0 9 7 9 15 0 8 4 15 10 15z
m176 0 c2 0 4 -9 4 -21 0 -11 -4 -18 -10 -14 -5 3 -7 12 -3 20 3 8 7 15 9 15z
m-157 -50 c6 0 11 -4 11 -10 0 -5 -2 -10 -4 -10 -3 0 -8 5 -11 10 -3 6 -1 10
4 10z m25 -10 c3 0 8 -4 11 -10 3 -5 1 -10 -4 -10 -6 0 -11 5 -11 10 0 6 2 10
4 10z m135 -20 c6 0 11 -4 11 -10 0 -5 -2 -10 -4 -10 -3 0 -8 5 -11 10 -3 6
-1 10 4 10z m-175 -50 c2 0 2 -9 -1 -20 -4 -16 -2 -19 11 -14 9 3 16 2 16 -4
0 -6 -7 -9 -15 -8 -8 1 -17 5 -21 9 -4 3 -4 13 -1 22 4 8 8 15 11 15z m-95
-80 c5 0 13 -4 16 -10 3 -5 2 -10 -4 -10 -5 0 -13 5 -16 10 -3 6 -2 10 4 10z
m-64 -77 c11 -6 27 -8 35 -6 12 4 13 3 1 -5 -7 -5 -10 -15 -7 -21 4 -6 0 -11
-10 -11 -10 0 -14 3 -11 7 4 3 -1 15 -10 26 -17 19 -17 20 2 10z m31 -53 c2 0
4 -9 4 -20 0 -11 -4 -20 -9 -20 -5 0 -7 9 -4 20 3 11 7 20 9 20z m-282 -100
c2 0 7 -7 10 -16 3 -8 2 -12 -4 -9 -6 3 -10 10 -10 16 0 5 2 9 4 9z m320 -61
c11 1 17 -2 13 -5 -3 -3 -12 -4 -19 -1 -8 3 -5 6 6 6z m-48 -19 c2 0 4 -4 4
-10 0 -5 -5 -10 -11 -10 -5 0 -7 5 -4 10 3 6 8 10 11 10z m-100 -40 c2 0 5 -4
9 -9 3 -5 2 -12 -3 -15 -5 -3 -9 1 -9 9 0 8 2 15 3 15z m34 -5 c6 -4 8 -10 5
-15 -3 -4 2 -11 11 -14 8 -3 12 -11 9 -17 -5 -6 -12 -4 -21 8 -7 10 -14 24
-14 31 0 7 5 10 10 7z m-34 -65 c2 0 4 -4 4 -10 0 -5 -5 -10 -11 -10 -5 0 -7
5 -4 10 3 6 8 10 11 10z m-108 -71 c1 0 2 -10 2 -24 0 -15 -5 -24 -12 -22 -7
1 -16 7 -20 12 -4 6 -8 13 -8 17 0 3 8 9 18 11 9 3 18 5 20 6z m-22 -74 c14
-16 16 -17 11 -2 -4 9 -3 17 1 16 4 0 16 -4 27 -9 16 -7 17 -9 3 -9 -10 -1
-16 -9 -15 -21 1 -13 7 -18 17 -15 8 2 22 0 30 -6 13 -9 13 -10 0 -7 -8 1 -25
-2 -37 -6 -13 -4 -23 -12 -23 -17 0 -5 -4 -9 -10 -9 -5 0 -10 7 -10 16 0 8 -4
12 -10 9 -5 -3 -10 -1 -10 4 0 6 8 11 18 11 9 0 13 4 7 8 -5 4 -11 18 -13 32
-3 25 -2 25 14 5z m-90 -25 c2 0 4 -2 4 -4 0 -2 -8 -10 -17 -17 -16 -13 -17
-12 -4 4 7 9 15 17 17 17z m189 -43 c8 0 15 -2 15 -3 0 -2 -4 -5 -9 -9 -5 -3
-12 -2 -15 3 -3 5 1 9 9 9z m-171 -8 c11 1 17 -2 13 -5 -3 -3 -12 -4 -19 -1
-8 3 -5 6 6 6z m-164 -99 c6 0 10 -2 10 -4 0 -3 -4 -8 -10 -11 -5 -3 -10 -1
-10 4 0 6 5 11 10 11z m89 -20 c6 0 11 -9 11 -19 0 -10 -7 -21 -15 -25 -8 -3
-15 -1 -15 4 0 5 5 12 10 15 6 4 8 11 5 16 -4 5 -1 9 4 9z m-85 -30 c3 0 8 -4
11 -10 3 -5 1 -10 -4 -10 -6 0 -11 5 -11 10 0 6 2 10 4 10z m-165 -30 c6 0 13
-4 16 -10 3 -6 -1 -7 -9 -4 -9 3 -16 8 -16 10 0 2 4 4 9 4z m113 -48 c8 -8 15
-8 24 -1 8 7 14 7 19 -1 3 -5 -1 -10 -9 -10 -9 0 -16 -4 -16 -10 0 -5 -6 -10
-13 -10 -7 0 -13 10 -14 21 -2 16 1 19 9 11z m-26 -2 c2 0 4 -4 4 -10 0 -5 -5
-10 -11 -10 -5 0 -7 5 -4 10 3 6 8 10 11 10z m132 -20 c15 0 34 -5 42 -10 13
-8 12 -10 -2 -10 -10 0 -18 -7 -18 -15 0 -11 -7 -14 -24 -9 -13 3 -27 1 -31
-5 -3 -6 -11 -9 -16 -6 -5 4 -19 8 -30 10 -12 3 -24 7 -28 11 -3 4 1 4 9 2 8
-3 23 1 33 10 11 10 17 11 17 4 0 -7 5 -12 10 -12 6 0 9 3 9 8 -1 4 -1 10 0
15 0 4 13 7 29 7z m-340 -59 c6 -8 8 -20 5 -28 -3 -7 -10 -13 -16 -13 -8 0 -8
3 0 11 6 6 9 19 6 28 -4 13 -3 13 5 2z m98 -81 c3 0 3 -4 0 -8 -3 -5 4 -19 15
-30 13 -15 15 -22 7 -22 -7 0 -19 9 -26 20 -7 12 -10 25 -7 30 4 6 8 10 11 10z
m-86 -21 c2 1 -1 -4 -7 -10 -6 -6 -9 -17 -7 -24 3 -7 1 -16 -5 -20 -7 -4 -11
4 -11 19 0 13 6 27 13 29 6 3 14 6 17 6z m143 -5 c10 -3 15 -9 12 -12 -3 -3
-11 0 -18 7 -9 10 -8 11 6 5z m-122 -4 c6 0 7 -4 4 -10 -3 -5 -11 -10 -16 -10
-6 0 -7 5 -4 10 3 6 11 10 16 10z m-297 -70 c3 0 8 -4 11 -10 3 -5 1 -10 -4
-10 -6 0 -11 5 -11 10 0 6 2 10 4 10z m342 -32 c3 -4 6 -12 8 -20 1 -7 5 -18
8 -24 4 -6 0 -11 -10 -11 -9 0 -23 6 -30 14 -7 7 -10 17 -7 23 4 6 11 8 16 5
5 -4 9 -1 9 6 0 7 3 10 6 7z m-186 -98 c6 0 10 -4 10 -10 0 -5 -4 -10 -10 -10
-5 0 -10 5 -10 10 0 6 5 10 10 10z m154 0 c3 0 8 -4 11 -10 3 -5 1 -10 -4 -10
-6 0 -11 5 -11 10 0 6 2 10 4 10z m-8 -63 c3 -3 4 -12 1 -19 -3 -8 -6 -5 -6 6
-1 11 2 17 5 13z m-276 -47 c6 0 10 -2 10 -4 0 -3 -4 -8 -10 -11 -5 -3 -10 -1
-10 4 0 6 5 11 10 11z m-160 -70 c6 0 10 -4 10 -10 0 -5 -4 -10 -10 -10 -5 0
-10 5 -10 10 0 6 5 10 10 10z m32 -36 c5 -3 8 -13 6 -22 -1 -10 1 -22 5 -29 4
-6 2 -15 -4 -19 -7 -4 -9 -3 -5 4 3 6 1 14 -5 17 -5 4 -8 14 -5 22 3 8 1 11
-4 8 -6 -3 -7 1 -4 9 3 9 10 13 16 10z m90 6 c4 0 8 -3 8 -7 0 -5 -12 -13 -26
-20 -26 -12 -26 -12 -9 7 10 11 22 20 27 20z m-399 -16 c8 -3 14 -11 14 -18 0
-8 -8 -11 -19 -8 -10 2 -21 9 -25 15 -3 6 -1 7 5 3 7 -4 12 -3 12 3 0 6 6 8
13 5z m282 -18 c8 -11 15 -23 15 -28 0 -4 -12 -8 -26 -8 -14 0 -23 4 -19 10 3
6 2 10 -4 10 -5 0 -12 -10 -14 -22 -4 -20 -4 -19 -6 5 -1 21 4 27 19 27 11 0
20 6 20 13 0 7 7 4 15 -7z m265 14 c6 0 10 -2 10 -4 0 -3 -4 -8 -10 -11 -5 -3
-10 -1 -10 4 0 6 5 11 10 11z m-676 -11 c11 1 17 -2 13 -5 -3 -3 -12 -4 -19
-1 -8 3 -5 6 6 6z m516 -10 c3 0 -4 -6 -14 -14 -11 -8 -25 -15 -30 -15 -6 1 0
7 14 15 14 8 27 14 30 14z m-341 -9 c6 0 13 -4 16 -10 3 -6 -1 -7 -9 -4 -9 3
-16 8 -16 10 0 2 4 4 9 4z m35 0 c3 0 8 -4 11 -10 3 -5 1 -10 -4 -10 -6 0 -11
5 -11 10 0 6 2 10 4 10z m-368 -40 c2 0 4 -4 4 -10 0 -5 -5 -10 -11 -10 -5 0
-7 5 -4 10 3 6 8 10 11 10z m186 -1 c4 1 12 -7 17 -17 9 -16 6 -18 -21 -14
-21 3 -29 1 -24 -7 4 -6 1 -11 -8 -11 -9 0 -16 3 -16 8 0 4 4 12 8 18 4 6 14
14 22 17 8 3 18 6 22 6z m26 -46 c20 -3 39 -7 41 -9 2 -2 -10 -4 -27 -4 -19 0
-32 -5 -32 -12 0 -9 -4 -8 -10 2 -5 8 -10 18 -10 22 0 4 17 4 38 1z m-332 -25
c23 0 24 -2 10 -10 -12 -7 -21 -7 -28 0 -6 6 0 10 18 10z m96 1 c10 0 10 -2 1
-6 -7 -2 -13 -9 -13 -14 0 -6 6 -7 13 -3 6 4 9 3 4 -1 -4 -5 -16 -10 -27 -12
-11 -2 -20 2 -20 8 0 5 4 8 9 5 5 -3 11 1 15 9 3 8 11 15 18 14z m151 -31 l38
-1 -20 -21 c-16 -16 -23 -18 -33 -8 -9 9 -9 12 3 13 8 0 6 4 -6 9 -15 6 -11 8
18 8z m-254 -28 c6 0 13 -4 16 -10 3 -6 -1 -7 -9 -4 -9 3 -16 8 -16 10 0 2 4
4 9 4z m214 -20 c5 0 5 -4 2 -10 -3 -5 -14 -10 -23 -10 -15 0 -15 2 -2 10 8 5
19 10 23 10z m49 -3 c11 1 16 -1 12 -5 -5 -4 -12 -11 -15 -15 -3 -5 -9 -2 -12
5 -3 9 3 14 15 15z m-192 -17 c6 0 10 -4 10 -10 0 -5 -4 -10 -10 -10 -5 0 -10
5 -10 10 0 6 5 10 10 10z m225 0 c3 0 2 -7 -2 -15 -3 -9 -8 -14 -10 -11 -3 3
-2 9 2 15 3 6 8 11 10 11z m-918 -30 c2 0 -1 -8 -6 -18 -7 -13 -6 -23 1 -30 8
-8 9 -12 1 -12 -6 0 -14 7 -17 16 -4 9 -1 23 5 30 6 8 13 14 16 14z m278 -70
c3 0 2 -7 -2 -15 -3 -9 -8 -14 -10 -11 -3 3 -2 9 2 15 3 6 8 11 10 11z m299
-11 c11 1 17 -2 13 -5 -3 -3 -12 -4 -19 -1 -8 3 -5 6 6 6z m-608 -29 c2 0 5
-4 9 -9 3 -5 2 -12 -3 -15 -5 -3 -9 1 -9 9 0 8 2 15 3 15z m330 -20 c2 0 4 -4
4 -10 0 -5 -5 -10 -11 -10 -5 0 -7 5 -4 10 3 6 8 10 11 10z m29 0 c8 0 15 -2
15 -4 0 -2 -7 -9 -15 -16 -12 -10 -15 -10 -15 4 0 9 7 16 15 16z m-143 -43 c6
-9 8 -9 8 2 0 8 2 12 5 9 3 -3 3 -12 0 -20 -4 -10 -15 -13 -32 -10 -25 5 -25
6 -8 18 15 11 20 11 27 1z m-65 3 c1 0 5 -4 8 -10 3 -6 -4 -10 -17 -10 -18 0
-20 2 -8 10 8 5 16 10 17 10z m-49 -10 c4 0 9 -10 9 -22 2 -18 0 -20 -7 -8 -5
8 -10 18 -10 23 0 4 4 7 8 7z m88 -20 c2 0 4 -4 4 -10 0 -5 -5 -10 -11 -10 -5
0 -7 5 -4 10 3 6 8 10 11 10z m-295 -10 c5 0 9 -2 9 -4 0 -2 -7 -7 -16 -10 -8
-3 -12 -2 -9 4 3 6 10 10 16 10z m195 0 c2 0 4 -2 4 -4 0 -2 -8 -10 -17 -17
-16 -13 -17 -12 -4 4 7 9 15 17 17 17z m-177 -50 c6 0 13 -4 16 -10 3 -5 1
-10 -5 -10 -6 0 -8 -5 -4 -12 4 -7 3 -8 -4 -4 -7 4 -12 14 -12 22 0 8 4 14 9
14z m266 -3 c8 0 15 -2 15 -3 0 -2 -4 -5 -9 -9 -5 -3 -12 -2 -15 3 -3 5 1 9 9
9z m-272 -47 c4 0 7 -4 7 -10 0 -5 -10 -10 -22 -10 -19 0 -20 2 -8 10 8 5 18
10 23 10z m241 -8 c5 -3 1 -9 -10 -13 -10 -4 -23 -8 -28 -8 -6 -1 -1 5 9 13
11 8 24 12 29 8z m-417 -63 c1 0 0 -6 -3 -14 -4 -8 -10 -15 -14 -15 -5 0 -11
4 -15 9 -3 5 3 12 12 14 10 3 19 5 20 6z m28 -12 c8 0 15 -2 15 -3 0 -2 -4 -5
-9 -9 -5 -3 -12 -2 -15 3 -3 5 1 9 9 9z m46 3 c5 0 9 -4 9 -10 0 -5 -7 -10
-16 -10 -8 0 -12 5 -9 10 3 6 10 10 16 10z m100 -30 c6 0 7 -4 4 -10 -3 -5
-11 -10 -16 -10 -6 0 -7 5 -4 10 3 6 11 10 16 10z m-398 -26 c10 -3 15 -9 12
-12 -3 -3 -11 0 -18 7 -9 10 -8 11 6 5z m192 -30 c8 -4 15 -11 15 -16 0 -6 -6
-5 -15 2 -8 7 -15 14 -15 16 0 2 7 1 15 -2z m-187 -104 c5 0 9 -7 9 -15 0 -8
-4 -12 -9 -9 -4 3 -8 9 -8 15 0 5 4 9 8 9z m177 -40 c2 0 7 -4 10 -10 3 -5 -1
-10 -10 -10 -9 0 -13 5 -10 10 3 6 8 10 10 10z m-203 -23 c8 -16 11 -16 34 -1
22 15 24 15 18 0 -3 -9 -12 -16 -20 -16 -8 0 -14 -6 -14 -12 0 -9 -2 -10 -8
-2 -4 7 -15 8 -27 3 -18 -7 -18 -8 -2 -8 10 -1 15 -6 12 -11 -5 -8 -12 -7 -22
2 -9 7 -28 18 -42 25 -14 6 -20 12 -13 12 7 1 22 -4 32 -9 15 -8 21 -6 31 11
10 20 12 20 21 6z m-80 -43 c6 -4 5 -9 -3 -15 -7 -4 -15 -6 -17 -4 -2 2 -1 9
3 14 3 6 11 8 17 5z m73 -28 c1 0 7 -10 15 -20 14 -18 13 -19 -2 -13 -10 3
-20 2 -23 -3 -4 -6 0 -10 7 -10 10 0 9 -3 -2 -9 -8 -6 -18 -7 -23 -4 -4 2 -3
11 3 18 7 8 9 18 6 24 -3 5 0 11 6 14 7 2 13 4 13 3z m75 3 c6 -3 11 -8 11
-12 -1 -4 -4 -7 -8 -8 -4 0 -9 5 -11 12 -3 6 1 10 8 8z m-154 -49 c3 0 3 -4
-1 -9 -3 -5 -1 -12 5 -16 6 -4 7 -11 3 -18 -4 -7 -9 -4 -13 9 -4 10 -6 22 -3
27 2 4 6 7 9 7z m-192 -71 c11 1 17 -2 13 -5 -3 -3 -12 -4 -19 -1 -8 3 -5 6 6
6z m-80 -79 c3 0 8 -4 11 -10 3 -5 1 -10 -4 -10 -6 0 -11 5 -11 10 0 6 2 10 4
10z m-134 -40 c5 0 7 -7 4 -15 -4 -8 -8 -15 -10 -15 -2 0 -4 7 -4 15 0 8 4 15
10 15z m284 -21 c11 1 17 -2 13 -5 -3 -3 -12 -4 -19 -1 -8 3 -5 6 6 6z m-198
-59 c2 0 4 -7 4 -15 0 -8 -4 -15 -10 -15 -5 0 -7 7 -4 15 4 8 8 15 10 15z
m-127 -40 c6 0 13 -4 16 -10 3 -6 -1 -7 -9 -4 -9 3 -16 8 -16 10 0 2 4 4 9 4z
m-138 -10 c5 0 8 -4 4 -9 -3 -5 -1 -12 5 -16 5 -3 10 -11 10 -18 0 -6 -7 -2
-15 9 -8 10 -15 22 -15 27 0 4 5 7 11 7z m80 0 c5 0 9 -2 9 -4 0 -2 -7 -9 -15
-16 -13 -11 -14 -10 -9 4 3 9 10 16 15 16z m-156 -47 c8 -3 15 -7 15 -9 0 -2
-9 -4 -21 -4 -11 0 -18 4 -14 10 3 5 12 7 20 3z m71 -13 c2 0 4 -7 4 -16 0 -8
-5 -12 -10 -9 -6 4 -8 11 -5 16 4 5 8 9 11 9z m20 -3 c3 -3 4 -12 1 -19 -3 -8
-6 -5 -6 6 -1 11 2 17 5 13z m-153 -33 c10 -3 15 -9 12 -12 -3 -3 -11 0 -18 7
-9 10 -8 11 6 5z m-277 -64 c2 0 4 -2 4 -4 0 -2 -8 -10 -17 -17 -16 -13 -17
-12 -4 4 7 9 15 17 17 17z m54 -32 c14 0 19 -2 13 -5 -7 -2 -19 -2 -25 0 -7 3
-2 5 12 5z m-76 -38 c3 0 8 -4 11 -10 3 -5 1 -10 -4 -10 -6 0 -11 5 -11 10 0
6 2 10 4 10z m161 0 c2 0 6 -4 9 -8 3 -5 -1 -9 -9 -9 -8 0 -12 4 -9 9 3 4 7 8
9 8z m-70 -21 c6 0 4 -3 -3 -6 -6 -2 -10 -9 -7 -14 4 -5 -1 -6 -10 -2 -13 5
-14 7 -3 14 7 5 18 8 23 8z m9 -19 c2 0 10 -8 17 -17 13 -16 12 -17 -3 -4 -10
7 -18 15 -18 17 0 2 2 4 4 4z m2 -60 c2 0 4 -4 4 -10 0 -5 -5 -10 -11 -10 -5
0 -7 5 -4 10 3 6 8 10 11 10z m-37 -10 c4 0 8 -6 8 -13 0 -8 -6 -14 -13 -14
-7 0 -10 6 -7 14 3 7 8 13 12 13z m-101 -15 c3 -3 0 -11 -7 -18 -10 -9 -11 -8
-5 6 3 10 9 15 12 12z m62 5 c6 0 10 -11 10 -25 0 -14 -3 -25 -8 -25 -4 0 -13
9 -20 21 -8 12 -9 18 -3 14 6 -3 11 -1 11 4 0 6 5 11 10 11z m-326 -110 c3 0
3 -7 0 -15 -4 -8 -1 -15 6 -15 6 0 8 -5 4 -11 -4 -7 -10 -7 -16 -1 -6 6 -8 18
-5 26 4 9 9 16 11 16z m195 -20 c5 0 14 -6 20 -14 8 -10 9 -16 1 -21 -5 -3
-14 -3 -20 0 -5 3 -10 13 -10 21 0 8 4 14 9 14z m-340 -20 c6 0 11 -4 11 -10
0 -5 -2 -10 -4 -10 -3 0 -8 5 -11 10 -3 6 -1 10 4 10z m191 -40 c5 0 11 -4 15
-9 3 -5 1 -12 -4 -15 -5 -3 -11 1 -15 9 -3 8 -1 15 4 15z m-99 -17 c7 -7 10
-15 7 -18 -3 -3 -9 2 -12 12 -6 14 -5 15 5 6z m80 0 c7 -7 9 -19 5 -28 -3 -10
-12 -15 -21 -11 -8 3 -17 1 -20 -4 -4 -6 -12 -10 -18 -9 -9 0 -9 2 1 6 6 2 12
11 12 19 0 8 7 14 15 14 8 0 15 5 15 12 0 9 3 9 11 1z m-108 -68 c9 -5 17 -12
17 -16 0 -3 -7 -6 -15 -6 -8 0 -11 5 -8 10 3 6 1 7 -5 3 -9 -5 -9 -13 -2 -27
6 -10 15 -19 21 -19 6 0 7 5 4 10 -3 6 1 10 9 10 11 0 15 -9 13 -29 -2 -29 -3
-29 -24 -15 -12 7 -25 14 -28 14 -4 0 -3 -5 1 -11 4 -7 -1 -7 -15 1 -16 8 -26
8 -35 1 -6 -6 -22 -8 -34 -4 -12 3 -22 9 -22 14 0 5 16 15 35 23 19 8 35 17
35 20 0 3 -7 3 -15 0 -8 -4 -15 -2 -15 3 0 5 15 13 33 19 21 6 38 6 50 -1z
m-131 -27 c5 -2 10 -8 10 -13 0 -5 -5 -11 -10 -13 -5 -1 -9 4 -9 13 0 9 4 14
9 13z m200 -64 c4 -3 8 -9 8 -15 0 -5 -4 -9 -8 -9 -5 0 -9 7 -9 15 0 8 4 12 9
9z m-44 -18 c5 -3 7 -17 4 -31 -2 -14 -8 -25 -12 -25 -5 0 -7 8 -5 18 2 9 4
19 5 22 1 3 2 9 1 13 -1 5 3 6 7 3z m-102 -39 c3 -3 4 -12 1 -19 -3 -8 -6 -5
-6 6 -1 11 2 17 5 13z m63 -7 c6 0 11 -4 11 -10 0 -5 -2 -10 -4 -10 -3 0 -8 5
-11 10 -3 6 -1 10 4 10z"/>
<path d="M10437 5300 c-1 0 -8 -4 -16 -9 -8 -5 -9 -11 -3 -15 5 -3 12 1 16 9
3 8 4 15 3 15z"/>
<path d="M6308 2700 c-2 0 -10 -5 -18 -10 -9 -6 -10 -10 -3 -10 6 0 15 5 18
10 3 6 5 10 3 10z"/>
<path d="M11100 6320 c-5 0 -10 -5 -10 -11 0 -5 5 -7 10 -4 6 3 10 8 10 11 0
2 -4 4 -10 4z"/>
<path d="M11039 6285 c-3 3 -9 2 -12 -2 -4 -3 -7 -11 -7 -17 0 -6 5 -5 12 2 6
6 9 14 7 17z"/>
<path d="M11235 6290 c-8 0 -15 -2 -15 -4 0 -2 7 -9 15 -16 12 -10 15 -10 15
4 0 9 -7 16 -15 16z"/>
<path d="M11130 6265 c-5 3 -10 3 -10 -2 1 -4 6 -18 13 -29 9 -16 17 -19 32
-13 14 5 16 8 5 9 -8 2 -18 2 -22 1 -5 0 -8 5 -8 13 0 8 -4 18 -10 21z"/>
<path d="M11190 6257 c-11 -1 -20 -5 -20 -9 0 -3 9 -6 20 -5 11 1 20 5 20 9 0
3 -9 6 -20 5z"/>
<path d="M11105 6233 c-8 4 -17 2 -20 -3 -4 -6 3 -10 14 -10 12 0 21 2 21 4 0
2 -7 6 -15 9z"/>
<path d="M11174 6207 c-8 0 -14 -4 -14 -8 0 -4 4 -10 9 -13 5 -3 11 0 14 7 3
8 -1 14 -9 14z"/>
<path d="M11229 6195 c-7 19 -8 19 -8 1 -1 -10 -9 -25 -18 -33 -13 -10 -15
-16 -5 -19 6 -3 9 -11 5 -17 -4 -7 1 -6 10 2 9 7 14 18 11 23 -4 6 -2 13 3 17
6 3 7 15 2 26z"/>
<path d="M11175 6159 c-5 0 -18 -4 -28 -8 -17 -6 -16 -8 9 -20 24 -10 26 -10
15 2 -9 12 -9 16 1 20 7 3 9 5 3 6z"/>
<path d="M11102 6150 c-13 0 -21 -4 -18 -9 4 -5 0 -11 -6 -14 -7 -2 -9 -8 -5
-13 4 -4 17 2 30 14 l21 22 -22 0z"/>
<path d="M11247 6130 c-1 0 -7 -8 -13 -17 -6 -10 -8 -29 -4 -43 4 -14 6 -33 4
-42 -1 -10 2 -18 7 -18 5 0 9 27 9 60 0 33 -1 60 -3 60z"/>
<path d="M11183 6090 c-3 0 0 -6 6 -13 6 -8 7 -18 3 -22 -4 -5 -1 -5 6 -1 10
6 10 11 1 22 -6 8 -14 14 -16 14z"/>
<path d="M11060 6055 c-5 3 -10 1 -10 -5 0 -6 -4 -8 -10 -5 -5 3 -10 1 -10 -4
0 -6 6 -11 14 -11 8 0 17 4 21 9 3 5 1 12 -5 16z"/>
<path d="M11128 6057 c-15 -1 -23 -6 -18 -11 4 -4 16 -4 26 2 16 9 14 10 -8 9z"/>
<path d="M10946 6030 c-2 0 -9 -7 -16 -15 -7 -9 -11 -17 -9 -20 3 -2 10 5 17
15 7 11 10 20 8 20z"/>
<path d="M10980 6016 c-11 0 -20 -1 -20 -2 0 -2 7 -10 17 -19 13 -13 13 -19 4
-25 -10 -6 -10 -9 -1 -15 6 -4 17 -2 23 4 6 6 7 11 2 11 -6 0 -3 5 5 10 10 6
11 10 3 10 -7 0 -13 6 -13 13 0 7 -9 13 -20 13z"/>
<path d="M10950 6000 c-5 0 -10 -4 -10 -10 0 -5 5 -10 10 -10 6 0 10 5 10 10
0 6 -4 10 -10 10z"/>
<path d="M10924 5949 c-11 0 -14 -3 -6 -6 7 -3 16 -2 19 1 4 3 -2 6 -13 5z"/>
<path d="M11039 5935 c-2 1 -10 -3 -17 -11 -7 -8 -8 -14 -3 -14 5 0 13 5 16
11 4 6 5 12 4 14z"/>
<path d="M10994 5878 c-8 7 -14 8 -14 3 0 -5 5 -13 11 -16 6 -4 12 -5 14 -4 1
2 -3 10 -11 17z"/>
<path d="M10855 5820 c-10 9 -15 9 -15 1 0 -6 4 -11 9 -11 5 0 12 -8 14 -17 4
-15 5 -15 6 -2 0 9 -6 22 -14 29z"/>
<path d="M10836 5790 c-1 0 -10 -9 -19 -21 -10 -11 -16 -23 -13 -26 2 -3 9 -2
14 1 5 3 12 15 15 26 3 11 4 20 3 20z"/>
<path d="M10904 5789 c-11 0 -14 -3 -6 -6 7 -3 16 -2 19 1 4 3 -2 6 -13 5z"/>
<path d="M10878 5760 c-5 0 -6 -5 -3 -10 4 -6 1 -18 -7 -27 -12 -15 -11 -15 9
-3 11 8 19 20 16 27 -3 7 -9 13 -15 13z"/>
<path d="M10886 5710 c-2 0 -10 -8 -17 -17 -13 -16 -12 -17 4 -4 9 7 17 15 17
17 0 2 -2 4 -4 4z"/>
<path d="M10711 5679 c-6 10 -10 10 -16 1 -4 -7 0 -19 9 -28 13 -14 16 -14 16
-2 0 8 -4 21 -9 29z"/>
<path d="M10734 5629 c-11 0 -14 -3 -6 -6 7 -3 16 -2 19 1 4 3 -2 6 -13 5z"/>
<path d="M10799 5530 c-6 0 -7 -4 -4 -10 3 -5 11 -10 16 -10 6 0 7 5 4 10 -3
6 -11 10 -16 10z"/>
<path d="M10700 5497 c-15 1 -17 -1 -8 -11 7 -7 18 -13 24 -13 7 0 10 5 8 12
-3 6 -13 11 -24 12z"/>
<path d="M10580 5479 c-5 9 -10 9 -18 -1 -9 -11 -6 -14 13 -13 13 0 27 4 32 9
5 5 2 6 -6 1 -7 -4 -16 -3 -21 4z"/>
<path d="M10821 5490 c-6 0 -13 -4 -16 -10 -3 -6 1 -7 9 -4 9 3 16 8 16 10 0
2 -4 4 -9 4z"/>
<path d="M10656 5480 c-3 0 -8 -4 -11 -10 -3 -5 -1 -10 4 -10 6 0 11 5 11 10
0 6 -2 10 -4 10z"/>
<path d="M10844 5469 c-11 0 -14 -3 -6 -6 7 -3 16 -2 19 1 4 3 -2 6 -13 5z"/>
<path d="M10479 5460 c-6 0 -7 -4 -4 -10 3 -5 11 -10 16 -10 6 0 7 5 4 10 -3
6 -11 10 -16 10z"/>
<path d="M10615 5447 c-8 0 -12 -4 -9 -9 3 -5 10 -6 15 -3 5 4 9 7 9 9 0 1 -7
3 -15 3z"/>
<path d="M10531 5440 c-6 0 -1 -12 11 -26 13 -14 24 -20 26 -15 2 6 -3 18 -11
26 -9 8 -20 15 -26 15z"/>
<path d="M10611 5423 c-17 4 -21 3 -13 -5 5 -5 16 -8 23 -6 8 3 3 7 -10 11z"/>
<path d="M10539 5400 c-5 0 -7 -4 -4 -10 3 -5 8 -10 11 -10 2 0 4 5 4 10 0 6
-5 10 -11 10z"/>
<path d="M10632 5364 c-4 2 -14 1 -21 -4 -11 -6 -9 -11 9 -20 12 -6 24 -9 28
-6 3 3 0 6 -7 6 -7 0 -10 4 -6 9 3 5 2 12 -3 15z"/>
<path d="M10566 5340 c-2 0 -6 -7 -10 -15 -3 -8 -1 -15 4 -15 6 0 10 7 10 15
0 8 -2 15 -4 15z"/>
<path d="M10605 5324 c-8 3 -15 1 -15 -4 0 -6 7 -10 15 -10 8 0 15 2 15 4 0 2
-7 6 -15 10z"/>
<path d="M10706 5300 c-3 0 -7 -4 -11 -9 -3 -5 -1 -12 5 -16 5 -3 10 1 10 9 0
9 -2 16 -4 16z"/>
<path d="M10726 5280 c-1 0 -3 -7 -3 -15 0 -8 4 -12 9 -9 5 3 6 10 3 15 -4 5
-7 9 -9 9z"/>
<path d="M10688 5270 c-2 0 -10 -5 -18 -10 -9 -6 -10 -10 -3 -10 6 0 15 5 18
10 3 6 5 10 3 10z"/>
<path d="M10701 5242 c-14 11 -14 10 0 -6 14 -15 20 -16 35 -6 18 11 18 11 0
6 -10 -4 -26 -1 -35 6z"/>
<path d="M10514 5240 c-2 0 -10 -7 -18 -16 -9 -8 -16 -20 -16 -26 0 -7 4 -7
13 1 8 6 16 9 18 6 3 -2 5 5 5 15 0 11 -1 20 -2 20z"/>
<path d="M10684 5209 c-11 0 -14 -3 -6 -6 7 -3 16 -2 19 1 4 3 -2 6 -13 5z"/>
<path d="M10423 5154 c-14 6 -15 5 -6 -5 7 -7 15 -10 18 -7 3 3 -2 9 -12 12z"/>
<path d="M10590 5160 c-5 0 -10 -5 -10 -11 0 -5 5 -7 10 -4 6 3 10 8 10 11 0
2 -4 4 -10 4z"/>
<path d="M10370 5140 c-5 0 -10 -4 -10 -10 0 -5 5 -10 10 -10 6 0 10 5 10 10
0 6 -4 10 -10 10z"/>
<path d="M10417 5130 c-13 0 -16 -6 -13 -25 3 -15 -2 -31 -11 -40 -8 -9 -12
-19 -8 -23 4 -4 10 -1 12 6 3 6 8 10 12 7 5 -2 7 10 7 28 -1 18 3 35 8 39 7 5
4 8 -7 8z"/>
<path d="M10701 5130 c-5 0 -13 -4 -16 -10 -3 -5 -2 -10 4 -10 5 0 13 5 16 10
3 6 2 10 -4 10z"/>
<path d="M10457 5112 c-4 9 -6 9 -6 1 -1 -6 -4 -18 -7 -27 -3 -9 -1 -16 6 -16
6 0 8 5 5 10 -3 6 -2 10 4 10 5 0 15 -8 20 -17 6 -10 11 -13 11 -6 0 6 -5 15
-10 18 -8 5 -7 12 2 23 11 15 11 15 -4 4 -13 -10 -17 -10 -21 0z"/>
<path d="M10316 5057 c-3 4 -6 -2 -5 -13 0 -11 3 -14 6 -6 3 7 2 16 -1 19z"/>
<path d="M10347 5060 c-4 0 -8 -2 -8 -5 -1 -3 -2 -8 -3 -12 -1 -5 -5 -13 -9
-20 -5 -7 -1 -9 13 -6 15 4 18 9 10 18 -5 6 -7 15 -3 18 3 4 3 7 0 7z"/>
<path d="M10440 5045 c-5 3 -10 2 -10 -4 0 -5 5 -13 10 -16 6 -3 10 -2 10 4 0
5 -4 13 -10 16z"/>
<path d="M10284 4999 c-11 0 -14 -3 -6 -6 7 -3 16 -2 19 1 4 3 -2 6 -13 5z"/>
<path d="M10326 4990 c-1 0 -3 -7 -3 -15 0 -8 4 -12 9 -9 5 3 6 10 3 15 -4 5
-7 9 -9 9z"/>
<path d="M10306 4980 c-3 0 -8 -4 -11 -10 -3 -5 -1 -10 4 -10 6 0 11 5 11 10
0 6 -2 10 -4 10z"/>
<path d="M10075 4900 c-2 0 -7 -5 -10 -11 -4 -6 -5 -12 -2 -15 2 -3 7 2 10 11
4 8 5 15 2 15z"/>
<path d="M10245 4900 c-8 0 -15 -2 -15 -4 0 -2 7 -6 15 -10 8 -3 15 -1 15 4 0
6 -7 10 -15 10z"/>
<path d="M10026 4879 c0 0 -9 -9 -18 -20 -15 -16 -15 -19 -3 -19 8 0 15 5 15
11 0 5 4 7 10 4 6 -3 7 1 4 9 -3 9 -7 16 -8 15z"/>
<path d="M10284 4880 c-2 0 -1 -7 2 -15 4 -8 11 -15 16 -15 6 0 5 6 -2 15 -7
8 -14 15 -16 15z"/>
<path d="M10244 4869 c-11 0 -14 -3 -6 -6 7 -3 16 -2 19 1 4 3 -2 6 -13 5z"/>
<path d="M10246 4850 c-3 0 -7 -6 -7 -12 -1 -7 -1 -17 0 -22 1 -4 -3 -14 -9
-21 -6 -8 -18 -11 -26 -8 -9 3 -13 13 -10 22 5 13 3 12 -8 -2 -7 -10 -18 -17
-22 -16 -5 1 -13 1 -18 0 -6 0 -1 -8 10 -16 10 -8 26 -14 34 -14 10 0 8 3 -5
9 -20 9 -20 9 1 9 11 1 25 -4 32 -9 6 -6 10 -7 7 -4 -3 4 5 15 16 25 12 10 16
20 10 23 -6 4 -8 13 -4 21 3 8 2 15 -1 15z"/>
<path d="M10057 4820 c-10 0 -14 -6 -11 -14 4 -11 -2 -14 -22 -11 -25 2 -26 1
-10 -10 9 -7 25 -12 34 -10 9 2 21 4 26 4 5 1 3 7 -3 14 -6 8 -8 17 -4 20 3 4
-1 7 -10 7z"/>
<path d="M10075 4770 c-2 0 -7 -4 -10 -10 -3 -5 1 -10 10 -10 9 0 13 5 10 10
-3 6 -8 10 -10 10z"/>
<path d="M10148 4765 c-3 3 -9 -2 -12 -12 -6 -14 -5 -15 5 -6 7 7 10 15 7 18z"/>
<path d="M10108 4750 c-2 0 -10 -5 -18 -10 -9 -6 -10 -10 -3 -10 6 0 15 5 18
10 3 6 5 10 3 10z"/>
<path d="M10064 4710 c-2 0 -4 -4 -4 -10 0 -5 5 -10 11 -10 5 0 7 5 4 10 -3 6
-8 10 -11 10z"/>
<path d="M9514 4640 c-2 0 -4 -4 -4 -10 0 -5 5 -10 11 -10 5 0 7 5 4 10 -3 6
-8 10 -11 10z"/>
<path d="M9999 4640 c-5 0 -7 -4 -4 -10 3 -5 8 -10 11 -10 2 0 4 5 4 10 0 6
-5 10 -11 10z"/>
<path d="M9891 4623 c-10 9 -11 8 -5 -6 3 -10 9 -15 12 -12 3 3 0 11 -7 18z"/>
<path d="M9547 4612 c-3 8 -6 6 -6 -4 -1 -10 3 -18 8 -18 6 0 13 5 17 12 4 6
3 8 -4 4 -5 -3 -13 0 -15 6z"/>
<path d="M9618 4610 c-2 0 -10 -5 -18 -10 -9 -6 -10 -10 -3 -10 6 0 15 5 18
10 3 6 5 10 3 10z"/>
<path d="M10000 4610 c-5 0 -10 -4 -10 -9 0 -6 5 -13 10 -16 6 -3 10 1 10 9 0
9 -4 16 -10 16z"/>
<path d="M9801 4590 c-6 0 -13 -4 -16 -10 -3 -6 1 -7 9 -4 9 3 16 8 16 10 0 2
-4 4 -9 4z"/>
<path d="M9534 4580 c-2 0 -4 -4 -4 -10 0 -5 5 -10 11 -10 5 0 7 5 4 10 -3 6
-8 10 -11 10z"/>
<path d="M9694 4580 c-2 0 -4 -4 -4 -9 0 -6 4 -13 10 -16 6 -3 7 1 4 9 -3 9
-8 16 -10 16z"/>
<path d="M9750 4580 c-4 0 -10 -6 -13 -13 -3 -7 3 -13 13 -13 10 0 16 6 13 13
-3 7 -9 13 -13 13z"/>
<path d="M9510 4553 c-11 3 -18 1 -14 -4 3 -5 13 -9 22 -9 15 0 15 -2 2 -10
-12 -7 -10 -9 7 -7 16 1 19 5 12 13 -5 7 -19 14 -29 17z"/>
<path d="M9485 4530 c-2 0 -6 -4 -9 -8 -3 -5 1 -9 9 -9 8 0 12 4 9 9 -3 4 -7
8 -9 8z"/>
<path d="M9384 4510 c-2 0 -4 -4 -4 -10 0 -5 5 -10 11 -10 5 0 7 5 4 10 -3 6
-8 10 -11 10z"/>
<path d="M9645 4505 c-13 1 -21 -3 -18 -8 3 -4 12 -6 20 -3 8 3 24 -6 38 -22
14 -15 25 -24 25 -21 0 3 -9 17 -21 30 -11 13 -31 24 -44 24z"/>
<path d="M9528 4486 c-7 4 -8 3 -4 -4 4 -7 1 -12 -8 -12 -9 0 -16 -4 -16 -9 0
-6 4 -12 8 -15 4 -2 13 4 20 14 9 14 9 21 0 26z"/>
<path d="M9398 4480 c-5 0 0 -8 10 -18 9 -10 22 -18 29 -17 7 0 15 4 18 8 3 4
2 5 -1 2 -4 -2 -16 2 -28 10 -11 8 -24 15 -28 15z"/>
<path d="M9577 4472 c-3 7 -6 8 -6 2 -1 -5 5 -19 13 -30 14 -19 15 -18 13 3 0
12 -4 20 -8 17 -4 -2 -10 2 -12 8z"/>
<path d="M9642 4477 c-12 0 -22 -5 -22 -9 0 -4 3 -8 8 -8 4 0 14 5 22 10 12 7
10 9 -8 7z"/>
<path d="M9402 4454 c-6 3 -14 1 -17 -5 -4 -5 -5 -12 -3 -14 2 -2 10 0 17 4 8
6 9 11 3 15z"/>
<path d="M9476 4450 c-3 0 -8 -5 -11 -10 -3 -6 1 -13 10 -16 9 -4 19 -4 22 0
4 3 -1 6 -11 6 -9 0 -14 5 -11 10 3 6 4 10 1 10z"/>
<path d="M9537 4446 c-2 3 -7 -3 -11 -12 -4 -9 -4 -19 -1 -22 2 -3 7 3 11 12
4 9 4 19 1 22z"/>
<path d="M9178 4411 c-4 11 -6 11 -12 0 -4 -7 -5 -15 -2 -18 3 -4 9 -4 12 0 3
3 4 11 2 18z"/>
<path d="M9434 4420 c-2 0 -4 -4 -4 -9 0 -5 7 -12 16 -15 14 -5 15 -4 4 9 -7
8 -14 15 -16 15z"/>
<path d="M9594 4408 c-8 7 -14 8 -14 3 0 -5 5 -13 11 -16 6 -4 12 -5 14 -4 1
2 -3 10 -11 17z"/>
<path d="M9619 4420 c-5 0 -7 -4 -4 -10 3 -5 8 -10 11 -10 2 0 4 5 4 10 0 6
-5 10 -11 10z"/>
<path d="M9484 4399 c-11 0 -14 -3 -6 -6 7 -3 16 -2 19 1 4 3 -2 6 -13 5z"/>
<path d="M9473 4371 c-7 6 -13 8 -13 3 0 -5 4 -15 9 -22 6 -10 11 -9 22 5 7
10 9 15 5 11 -5 -4 -15 -3 -23 3z"/>
<path d="M9530 4380 c-5 0 -10 -5 -10 -11 0 -5 5 -7 10 -4 6 3 10 8 10 11 0 2
-4 4 -10 4z"/>
<path d="M9158 4370 c-5 0 -4 -9 2 -20 6 -11 12 -20 14 -20 2 0 2 9 -1 20 -3
11 -9 20 -15 20z"/>
<path d="M9255 4354 c-8 3 -15 1 -15 -4 0 -5 4 -11 9 -15 5 -3 12 -1 15 4 3 5
-1 11 -9 15z"/>
<path d="M9300 4330 c-16 9 -18 8 -14 -5 4 -8 12 -15 20 -15 8 0 14 2 14 5 0
2 -9 9 -20 15z"/>
<path d="M9278 4319 c-2 0 -10 -3 -18 -6 -8 -4 -21 -12 -29 -20 -11 -12 -9
-13 14 -7 18 4 26 3 22 -3 -4 -6 4 -8 20 -5 27 5 27 5 4 13 -12 5 -19 13 -16
19 3 5 5 10 3 9z"/>
<path d="M8777 4303 c-8 3 -14 -1 -14 -8 0 -7 6 -11 14 -8 7 3 13 6 13 8 0 2
-6 5 -13 8z"/>
<path d="M9341 4303 c-10 9 -11 8 -5 -6 3 -10 9 -15 12 -12 3 3 0 11 -7 18z"/>
<path d="M8806 4297 c-3 4 -6 -2 -5 -13 0 -11 3 -14 6 -6 3 7 2 16 -1 19z"/>
<path d="M8958 4278 c-15 12 -16 11 -5 -11 6 -14 15 -23 19 -21 3 2 9 0 13 -6
3 -5 10 -10 16 -10 5 0 1 8 -9 18 -10 9 -25 23 -34 30z"/>
<path d="M9146 4278 c-17 16 -18 16 -5 -5 7 -12 15 -20 18 -17 3 2 -3 12 -13
22z"/>
<path d="M8754 4270 c-2 0 -4 -4 -4 -10 0 -5 5 -10 11 -10 5 0 7 5 4 10 -3 6
-8 10 -11 10z"/>
<path d="M8852 4267 c-12 0 -18 -6 -15 -14 3 -9 0 -11 -10 -7 -8 3 -18 0 -23
-7 -5 -9 1 -11 23 -6 17 3 35 2 42 -4 7 -6 8 -6 2 2 -5 6 -7 17 -4 25 3 8 -2
12 -15 11z"/>
<path d="M8905 4267 c-8 0 -12 -4 -9 -9 3 -4 9 -8 15 -8 5 0 9 4 9 8 0 5 -7 9
-15 9z"/>
<path d="M9380 4270 c-5 0 -11 -4 -14 -8 -2 -4 4 -8 14 -8 10 0 16 4 14 8 -3
4 -9 8 -14 8z"/>
<path d="M9098 4250 c-3 10 -7 9 -13 -6 -4 -10 -9 -25 -11 -32 -1 -6 2 -10 7
-6 5 3 7 9 4 14 -3 4 0 10 6 12 7 2 10 10 7 18z"/>
<path d="M8927 4229 c-10 8 -14 7 -14 -4 0 -8 8 -15 18 -15 10 0 20 4 24 9 3
5 1 12 -5 16 -5 3 -10 1 -10 -6 0 -8 -4 -9 -13 0z"/>
<path d="M9178 4229 c-2 0 -9 -3 -15 -6 -7 -2 -13 -9 -13 -14 0 -5 7 -9 15 -9
8 0 15 7 15 15 0 8 -1 15 -2 14z"/>
<path d="M9105 4200 c-2 0 -7 -5 -10 -11 -4 -6 -5 -12 -2 -15 2 -3 7 2 10 11
4 8 5 15 2 15z"/>
<path d="M8864 4189 c-11 0 -14 -3 -6 -6 7 -3 16 -2 19 1 4 3 -2 6 -13 5z"/>
<path d="M9058 4186 c-16 2 -16 0 -3 -27 9 -16 17 -29 18 -29 2 0 3 12 2 27 0
17 -6 27 -17 29z"/>
<path d="M8914 4170 c-2 0 -4 -4 -4 -10 0 -5 5 -10 11 -10 5 0 7 5 4 10 -3 6
-8 10 -11 10z"/>
<path d="M8829 4160 c-5 0 -7 -4 -4 -10 3 -5 8 -10 11 -10 2 0 4 5 4 10 0 6
-5 10 -11 10z"/>
<path d="M8821 4134 c-5 3 -12 -1 -15 -10 -4 -9 -5 -18 -4 -19 2 -2 9 3 15 10
7 8 9 16 4 19z"/>
<path d="M9146 4137 c-3 4 -6 1 -6 -5 0 -7 -8 -12 -17 -12 -15 0 -16 -2 -3
-10 10 -6 17 -4 23 6 5 9 6 18 3 21z"/>
<path d="M8541 4108 c-8 2 -11 0 -7 -6 3 -6 3 -17 0 -26 -3 -9 -11 -13 -18 -9
-6 4 -5 -1 3 -11 13 -15 13 -19 0 -27 -10 -6 -6 -8 14 -7 15 1 27 8 27 15 0 7
7 13 16 13 14 0 15 2 3 17 -12 15 -12 16 6 9 11 -4 25 -10 31 -13 6 -2 14 3
17 11 4 9 -1 17 -11 20 -9 3 -24 4 -32 3 -8 -1 -21 -6 -28 -11 -8 -4 -11 -3
-10 5 2 6 -3 14 -11 17z"/>
<path d="M8715 4087 c-9 0 -18 -4 -20 -8 -3 -4 2 -6 10 -5 8 1 17 4 20 7 3 3
-2 6 -10 6z"/>
<path d="M8376 4080 c-3 0 -8 -4 -11 -10 -3 -5 -1 -10 4 -10 6 0 11 5 11 10 0
6 -2 10 -4 10z"/>
<path d="M8948 4060 c-2 0 -9 -5 -16 -12 -7 -7 -12 -16 -12 -20 0 -4 5 -8 12
-8 6 0 8 3 5 7 -4 3 -2 12 4 20 6 7 10 13 7 13z"/>
<path d="M8367 4043 c-2 8 -6 7 -11 -1 -4 -7 -15 -12 -24 -10 -10 1 -23 -1
-29 -5 -7 -5 -13 -14 -13 -20 0 -7 5 -5 10 4 7 11 21 14 54 12 30 -2 46 1 46
8 0 6 -6 9 -14 6 -8 -3 -16 -1 -19 6z"/>
<path d="M8779 4050 c-5 0 -7 -4 -4 -10 3 -5 8 -10 11 -10 2 0 4 5 4 10 0 6
-5 10 -11 10z"/>
<path d="M8844 4050 c-2 0 -4 -4 -4 -9 0 -6 4 -13 10 -16 6 -3 7 1 4 9 -3 9
-8 16 -10 16z"/>
<path d="M8446 4040 c-3 0 -8 -4 -11 -10 -3 -5 -1 -10 4 -10 6 0 11 5 11 10 0
6 -2 10 -4 10z"/>
<path d="M8904 4030 c-6 0 -17 -7 -24 -14 -9 -11 -9 -19 0 -33 10 -16 10 -16
5 4 -4 15 0 25 12 32 10 6 13 11 7 11z"/>
<path d="M9203 4014 c-14 6 -15 5 -6 -5 7 -7 15 -10 18 -7 3 3 -2 9 -12 12z"/>
<path d="M8368 4009 c-2 0 -12 -4 -23 -9 -16 -7 -17 -9 -3 -9 9 -1 20 4 23 9
3 6 5 10 3 9z"/>
<path d="M8455 4004 c-8 3 -17 0 -21 -6 -4 -6 -3 -8 4 -4 5 3 12 1 14 -6 3 -8
6 -9 11 -1 4 6 0 13 -8 17z"/>
<path d="M8575 4006 c-14 1 -25 -2 -25 -7 0 -5 11 -9 25 -9 19 0 23 -4 18 -17
-3 -10 -4 -16 -2 -13 3 3 11 14 19 24 10 13 10 17 3 12 -7 -4 -13 -4 -13 1 0
4 -11 9 -25 9z"/>
<path d="M8909 4010 c-5 0 -9 -4 -9 -9 0 -5 6 -14 14 -20 10 -8 16 -8 25 3 9
11 8 15 -5 20 -8 3 -20 6 -25 6z"/>
<path d="M8497 3990 c-3 0 -3 -9 0 -19 3 -12 11 -17 19 -14 11 4 11 7 -1 19
-7 8 -16 14 -18 14z"/>
<path d="M8619 3960 c-5 0 -7 -4 -4 -10 3 -5 8 -10 11 -10 2 0 4 5 4 10 0 6
-5 10 -11 10z"/>
<path d="M8895 3952 c-14 3 -25 1 -25 -3 0 -5 11 -9 25 -9 14 0 25 2 25 4 0 2
-11 6 -25 8z"/>
<path d="M8207 3950 c-4 0 -1 -13 8 -30 11 -21 23 -30 40 -30 13 0 26 4 30 9
3 5 0 13 -6 17 -8 5 -9 3 -4 -5 5 -9 0 -12 -16 -9 -13 1 -28 13 -34 26 -5 12
-13 22 -18 22z"/>
<path d="M8372 3936 c-14 9 -18 8 -19 -5 -1 -10 6 -17 18 -17 10 0 19 3 19 6
0 3 -8 10 -18 16z"/>
<path d="M8136 3927 c-1 1 -9 -3 -19 -8 -9 -6 -17 -7 -17 -3 0 4 -9 -5 -20
-19 -19 -24 -20 -28 -6 -49 8 -13 16 -27 16 -33 1 -5 3 -11 5 -13 1 -2 5 4 8
13 4 8 2 15 -3 15 -6 0 -10 9 -10 21 0 11 5 17 10 14 6 -4 7 -12 3 -18 -4 -7
0 -6 10 2 9 7 14 18 10 24 -4 6 0 8 10 4 14 -5 16 -2 11 21 -4 15 -7 28 -8 29z"/>
<path d="M8319 3930 c-5 0 -7 -4 -4 -10 3 -5 8 -10 11 -10 2 0 4 5 4 10 0 6
-5 10 -11 10z"/>
<path d="M8860 3930 c-5 0 -10 -5 -10 -11 0 -5 5 -7 10 -4 6 3 10 8 10 11 0 2
-4 4 -10 4z"/>
<path d="M8188 3900 c-10 0 -18 -5 -18 -12 0 -6 3 -8 7 -5 3 4 11 2 18 -3 8
-7 12 -5 12 5 0 8 -9 15 -19 15z"/>
<path d="M8041 3865 c-17 13 -22 14 -13 3 10 -13 10 -17 0 -20 -8 -3 -7 -6 3
-10 9 -3 21 -3 26 0 7 4 0 15 -16 27z"/>
<path d="M8364 3850 c-2 0 -4 -4 -4 -10 0 -5 5 -10 11 -10 5 0 7 5 4 10 -3 6
-8 10 -11 10z"/>
<path d="M8400 3850 c-5 0 -10 -5 -10 -11 0 -5 5 -7 10 -4 6 3 10 8 10 11 0 2
-4 4 -10 4z"/>
<path d="M8069 3800 c-5 0 -9 -4 -9 -10 0 -5 7 -10 16 -10 8 0 12 5 9 10 -3 6
-10 10 -16 10z"/>
<path d="M8061 3770 c-11 0 -22 -4 -25 -9 -3 -4 6 -6 19 -3 14 2 25 6 25 8 0
2 -9 4 -19 4z"/>
<path d="M8015 3743 c-8 4 -16 3 -19 -1 -3 -4 4 -9 15 -9 10 -1 19 0 19 2 0 1
-7 5 -15 8z"/>
<path d="M8075 3747 c-8 0 -15 -4 -15 -9 0 -4 4 -8 9 -8 6 0 12 4 15 8 3 5 -1
9 -9 9z"/>
<path d="M8001 3720 c-6 0 -13 -4 -16 -10 -3 -6 1 -7 9 -4 9 3 16 8 16 10 0 2
-4 4 -9 4z"/>
<path d="M8067 3703 c-7 3 -13 -3 -14 -13 -1 -10 5 -24 13 -31 10 -8 14 -8 14
0 0 6 -5 11 -11 11 -8 0 -8 4 0 14 9 10 8 15 -2 19z"/>
<path d="M7917 3690 c-4 0 -3 -9 3 -20 6 -11 15 -20 20 -20 6 0 5 9 -2 20 -7
11 -16 20 -21 20z"/>
<path d="M7994 3689 c-11 0 -14 -3 -6 -6 7 -3 16 -2 19 1 4 3 -2 6 -13 5z"/>
<path d="M7993 3670 c-5 -1 -15 -8 -23 -17 -13 -15 -12 -16 4 -10 10 4 20 7
22 7 2 0 4 5 4 10 0 6 -3 10 -7 10z"/>
<path d="M8048 3655 c-3 3 -9 -2 -12 -12 -6 -14 -5 -15 5 -6 7 7 10 15 7 18z"/>
<path d="M7766 3620 c-8 0 -20 -8 -27 -17 -10 -11 -10 -14 -1 -9 8 5 12 0 12
-14 0 -12 5 -18 10 -15 6 4 8 11 5 16 -4 5 1 12 9 15 9 3 13 10 10 15 -3 5
-11 9 -18 9z"/>
<path d="M7815 3610 c-2 0 -9 -9 -15 -21 -11 -19 -10 -20 10 -9 11 6 18 15 15
21 -4 5 -8 9 -10 9z"/>
<path d="M7839 3580 c-6 0 -9 -6 -6 -12 2 -7 14 -12 25 -12 12 1 22 -2 22 -6
0 -4 10 -10 21 -13 l21 -6 -21 20 c-12 11 -25 17 -30 14 -5 -3 -12 -1 -16 5
-3 5 -11 10 -16 10z"/>
<path d="M7823 3549 c-4 0 -17 -4 -28 -9 -19 -8 -19 -9 2 -9 12 -1 25 4 28 9
3 6 3 10 -2 9z"/>
<path d="M7684 3540 c-2 0 -4 -4 -4 -10 0 -5 5 -10 11 -10 5 0 7 5 4 10 -3 6
-8 10 -11 10z"/>
<path d="M7772 3514 c-4 3 -9 -4 -9 -15 -1 -10 0 -19 2 -19 1 0 5 7 8 15 4 8
3 16 -1 19z"/>
<path d="M7816 3520 c0 0 -7 -4 -14 -9 -10 -6 -7 -10 12 -13 21 -4 24 -3 15 8
-6 8 -12 14 -13 14z"/>
<path d="M7660 3507 c-10 3 -11 2 -4 -4 6 -4 14 -15 17 -23 5 -11 6 -9 4 4 -1
11 -9 21 -17 23z"/>
<path d="M7728 3490 c-2 0 -10 -5 -18 -10 -13 -8 -12 -10 3 -10 9 0 17 5 17
10 0 6 -1 10 -2 10z"/>
<path d="M7424 3320 c-2 0 -4 -2 -4 -4 0 -2 8 -10 18 -17 15 -13 16 -12 3 4
-7 9 -15 17 -17 17z"/>
<path d="M7501 3263 c-10 9 -11 8 -5 -6 3 -10 9 -15 12 -12 3 3 0 11 -7 18z"/>
<path d="M7276 3257 c-3 4 -6 -2 -5 -13 0 -11 3 -14 6 -6 3 7 2 16 -1 19z"/>
<path d="M7192 3250 c-5 0 -17 -10 -28 -22 l-19 -21 28 18 c15 9 27 19 27 21
0 2 -4 4 -8 4z"/>
<path d="M7230 3225 c-11 1 -25 -2 -32 -7 -10 -6 -10 -8 0 -8 6 0 12 -4 12 -9
0 -5 -10 -7 -22 -5 -21 4 -21 4 -3 -5 15 -6 25 -4 41 10 11 11 24 17 27 14 4
-3 5 -2 2 2 -3 4 -14 7 -25 8z"/>
<path d="M7049 3189 c-25 1 -39 -4 -43 -15 -3 -9 -6 -19 -6 -22 0 -4 4 -1 9 6
5 8 24 18 42 22 l34 8 -36 1z"/>
<path d="M7128 3170 c-6 0 -5 -6 2 -15 8 -9 9 -15 2 -15 -6 0 -14 5 -17 10 -3
6 -14 10 -23 10 -11 -1 -8 -6 11 -16 15 -8 32 -12 37 -9 5 3 7 12 3 20 -3 8
-10 15 -15 15z"/>
<path d="M7193 3164 c-14 6 -15 5 -6 -5 7 -7 15 -10 18 -7 3 3 -2 9 -12 12z"/>
<path d="M7076 3140 c-5 0 -6 -3 -3 -7 4 -3 2 -12 -4 -20 -9 -9 -8 -13 0 -13
6 0 11 5 11 10 0 6 8 10 18 10 14 0 15 2 2 10 -8 5 -19 10 -24 10z"/>
<path d="M7139 3120 c-5 0 -7 -4 -4 -10 3 -5 8 -10 11 -10 2 0 4 5 4 10 0 6
-5 10 -11 10z"/>
<path d="M7022 3104 c-5 3 -9 -1 -9 -9 0 -8 4 -15 9 -15 4 0 8 4 8 9 0 6 -4
12 -8 15z"/>
<path d="M7107 3110 c-7 0 -6 -4 3 -10 12 -8 12 -10 -5 -10 -16 0 -17 -2 -5
-10 9 -6 17 -5 22 3 3 6 4 15 2 19 -3 4 -11 8 -17 8z"/>
<path d="M6924 3089 c-11 0 -14 -3 -6 -6 7 -3 16 -2 19 1 4 3 -2 6 -13 5z"/>
<path d="M6919 2950 c-5 0 -7 -4 -4 -10 3 -5 8 -10 11 -10 2 0 4 5 4 10 0 6
-5 10 -11 10z"/>
<path d="M6823 2929 c-31 1 -33 -1 -32 -31 2 -30 2 -30 6 -6 3 20 11 28 31 31
24 4 24 4 -5 6z"/>
<path d="M6534 2721 c-13 4 -31 -2 -49 -17 -26 -21 -27 -23 -8 -21 12 0 21 6
20 11 -1 5 12 13 28 16 26 5 27 7 9 11z"/>
<path d="M6523 2674 c-14 6 -15 5 -6 -5 7 -7 15 -10 18 -7 3 3 -2 9 -12 12z"/>
<path d="M6465 2667 c-8 0 -15 -3 -15 -7 0 -3 6 -14 13 -24 13 -18 14 -18 20
-1 5 10 13 15 23 11 9 -3 12 -2 9 5 -4 6 -13 8 -21 5 -8 -3 -14 -2 -14 3 0 4
-7 8 -15 8z"/>
<path d="M6450 2635 c-5 3 -10 -1 -10 -9 0 -9 5 -16 10 -16 6 0 10 4 10 9 0 6
-4 13 -10 16z"/>
<path d="M6537 2620 c-25 0 -48 -3 -51 -8 -2 -4 16 -7 40 -6 25 1 47 4 51 8 3
3 -14 6 -40 6z"/>
<path d="M6401 2560 c-5 0 -6 -11 -3 -25 2 -14 0 -25 -5 -25 -5 0 -15 6 -22
13 -10 10 -11 9 -6 -5 4 -10 13 -18 21 -18 7 0 17 8 22 18 5 9 7 23 5 30 -3 6
-8 12 -12 12z"/>
<path d="M6304 2540 c-13 0 -14 -3 -5 -13 6 -8 9 -16 6 -18 -2 -3 9 -6 26 -7
l29 -2 -20 20 c-11 11 -27 20 -36 20z"/>
<path d="M6486 2533 c-10 4 -12 -1 -9 -14 3 -10 7 -19 8 -19 2 0 5 6 8 14 3 8
0 17 -7 19z"/>
<path d="M6596 2540 c-2 0 -10 -8 -17 -17 -13 -16 -12 -17 4 -4 9 7 17 15 17
17 0 2 -2 4 -4 4z"/>
</g>
</svg>
